<svg version="1.1" id="Layer_1" xmlns="http://www.w3.org/2000/svg" xmlns:xlink="http://www.w3.org/1999/xlink" x="0px" y="0px"
	 width="100%" viewBox="0 0 384 384" enable-background="new 0 0 384 384" xml:space="preserve">
<path fill="#FFFFFE" opacity="1.000000" stroke="none" 
	d="
M1.000000,353.000000 
	C1.000000,246.645233 1.000000,140.290466 1.454361,33.467392 
	C4.171336,32.999073 6.433949,32.999073 9.054869,32.999073 
	C9.054869,30.144913 9.054869,27.738998 9.054869,24.976898 
	C11.819833,24.976898 14.224289,24.976898 17.162613,24.976898 
	C17.162613,22.094921 17.162613,19.567646 17.162613,16.696323 
	C20.115358,16.696323 22.519812,16.696323 25.267921,16.696323 
	C25.267921,13.917584 25.267921,11.517941 25.267921,9.137201 
	C28.049044,9.014455 30.462475,8.907937 33.000000,8.795942 
	C33.000000,5.942214 33.000000,3.471107 33.000000,1.000000 
	C139.354767,1.000000 245.709534,1.000000 352.532593,1.454362 
	C353.000916,4.171337 353.000916,6.433950 353.000916,9.054871 
	C355.855103,9.054871 358.261017,9.054871 361.023132,9.054871 
	C361.023132,11.819833 361.023132,14.224284 361.023132,17.162613 
	C363.905090,17.162613 366.432343,17.162613 369.303650,17.162613 
	C369.303650,20.118408 369.303650,22.515993 369.303650,25.267914 
	C372.078186,25.267914 374.480408,25.267914 376.862762,25.267914 
	C376.985474,28.049044 377.091980,30.462475 377.203949,33.000000 
	C380.057800,33.000000 382.528900,33.000000 385.000000,33.000000 
	C385.000000,139.354767 385.000000,245.709534 384.545654,352.532593 
	C381.828674,353.000916 379.566071,353.000916 376.945129,353.000916 
	C376.945129,355.855103 376.945129,358.261017 376.945129,361.023132 
	C374.186676,361.023132 371.771759,361.023132 368.837372,361.023132 
	C368.837372,363.905090 368.837372,366.432343 368.837372,369.303680 
	C365.881592,369.303680 363.484009,369.303680 360.732086,369.303680 
	C360.732086,372.078186 360.732086,374.480408 360.732086,376.862793 
	C357.950958,376.985565 355.537537,377.092072 353.000000,377.204102 
	C353.000000,380.057800 353.000000,382.528900 353.000000,385.000000 
	C246.645233,385.000000 140.290466,385.000000 33.467392,384.545654 
	C32.999073,381.828674 32.999073,379.566071 32.999073,376.945129 
	C30.150169,376.945129 27.734526,376.945129 24.976898,376.945129 
	C24.976898,374.180145 24.976898,371.775696 24.976898,368.837402 
	C22.094923,368.837402 19.567650,368.837402 16.696327,368.837402 
	C16.696327,365.884644 16.696327,363.480194 16.696327,360.732056 
	C13.921821,360.732056 11.519588,360.732056 9.137196,360.732056 
	C9.014454,357.950958 8.907939,355.537537 8.795948,353.000000 
	C5.942212,353.000000 3.471106,353.000000 1.000000,353.000000 
M352.541016,180.728317 
	C352.709106,179.212967 352.877197,177.697632 353.161285,175.336868 
	C355.479279,146.927292 350.528046,120.090172 335.848358,95.361443 
	C322.717865,73.242401 304.325623,56.901142 280.843811,46.617512 
	C246.641312,31.638859 211.565826,31.415150 175.427200,41.371933 
	C173.973846,41.970882 172.520508,42.569836 170.368378,43.179161 
	C169.943130,43.354496 169.517899,43.529831 168.590256,43.553677 
	C168.201508,43.881020 167.812759,44.208363 166.709457,44.643871 
	C165.142303,45.204979 163.575150,45.766090 161.319275,46.226814 
	C159.721695,47.034126 158.124130,47.841438 155.824936,48.716499 
	C154.584488,49.309177 153.344055,49.901855 151.401337,50.340378 
	C148.312714,52.202023 145.224091,54.063667 141.339172,55.943375 
	C140.076019,56.322491 138.819412,56.725258 137.548752,57.077240 
	C108.636932,65.085968 83.025856,78.573128 62.936905,101.476234 
	C42.850960,124.375916 32.505539,151.025787 32.179062,181.402771 
	C32.081470,190.483292 33.356056,199.578568 33.342697,209.176147 
	C33.187027,209.643341 32.926201,210.102692 32.890652,210.578842 
	C29.859997,251.178360 40.522552,286.881378 70.331085,315.834320 
	C93.644455,338.478546 122.005447,349.043793 153.952667,350.946198 
	C182.948868,352.672852 210.483826,346.603088 236.795212,334.605408 
	C238.673538,333.748901 240.213226,332.149750 242.400009,330.697601 
	C243.943710,330.104401 245.487396,329.511200 247.815750,328.962952 
	C272.534607,322.651642 294.799103,311.627991 313.626587,294.221252 
	C338.295898,271.413513 351.918274,243.206253 353.600372,209.608841 
	C354.009644,201.433838 352.600525,193.167786 352.107635,184.224213 
	C352.108093,183.273361 352.108521,182.322525 352.541016,180.728317 
z"/>
<path fill="#000000" opacity="1.000000" stroke="none" 
	d="
M1.000000,353.468658 
	C3.471106,353.000000 5.942212,353.000000 8.795948,353.000000 
	C8.907939,355.537537 9.014454,357.950958 9.137196,360.732056 
	C11.519588,360.732056 13.921821,360.732056 16.696327,360.732056 
	C16.696327,363.480194 16.696327,365.884644 16.696327,368.837402 
	C19.567650,368.837402 22.094923,368.837402 24.976898,368.837402 
	C24.976898,371.775696 24.976898,374.180145 24.976898,376.945129 
	C27.734526,376.945129 30.150169,376.945129 32.999073,376.945129 
	C32.999073,379.566071 32.999073,381.828674 32.999535,384.545654 
	C22.406794,385.000000 11.813587,385.000000 1.000000,385.000000 
	C1.000000,374.646820 1.000000,364.292053 1.000000,353.468658 
z"/>
<path fill="#000000" opacity="1.000000" stroke="none" 
	d="
M353.468658,385.000000 
	C353.000000,382.528900 353.000000,380.057800 353.000000,377.204102 
	C355.537537,377.092072 357.950958,376.985565 360.732086,376.862793 
	C360.732086,374.480408 360.732086,372.078186 360.732086,369.303680 
	C363.484009,369.303680 365.881592,369.303680 368.837372,369.303680 
	C368.837372,366.432343 368.837372,363.905090 368.837372,361.023132 
	C371.771759,361.023132 374.186676,361.023132 376.945129,361.023132 
	C376.945129,358.261017 376.945129,355.855103 376.945129,353.000916 
	C379.566071,353.000916 381.828674,353.000916 384.545654,353.000458 
	C385.000000,363.593201 385.000000,374.186432 385.000000,385.000000 
	C374.646820,385.000000 364.292053,385.000000 353.468658,385.000000 
z"/>
<path fill="#000000" opacity="1.000000" stroke="none" 
	d="
M32.531342,1.000000 
	C33.000000,3.471107 33.000000,5.942214 33.000000,8.795942 
	C30.462475,8.907937 28.049044,9.014455 25.267921,9.137201 
	C25.267921,11.517941 25.267921,13.917584 25.267921,16.696323 
	C22.519812,16.696323 20.115358,16.696323 17.162613,16.696323 
	C17.162613,19.567646 17.162613,22.094921 17.162613,24.976898 
	C14.224289,24.976898 11.819833,24.976898 9.054869,24.976898 
	C9.054869,27.738998 9.054869,30.144913 9.054869,32.999073 
	C6.433949,32.999073 4.171336,32.999073 1.454361,32.999535 
	C1.000000,22.406796 1.000000,11.813590 1.000000,1.000000 
	C11.353187,1.000000 21.707935,1.000000 32.531342,1.000000 
z"/>
<path fill="#000000" opacity="1.000000" stroke="none" 
	d="
M385.000000,32.531342 
	C382.528900,33.000000 380.057800,33.000000 377.203949,33.000000 
	C377.091980,30.462475 376.985474,28.049044 376.862762,25.267914 
	C374.480408,25.267914 372.078186,25.267914 369.303650,25.267914 
	C369.303650,22.515993 369.303650,20.118408 369.303650,17.162613 
	C366.432343,17.162613 363.905090,17.162613 361.023132,17.162613 
	C361.023132,14.224284 361.023132,11.819833 361.023132,9.054871 
	C358.261017,9.054871 355.855103,9.054871 353.000916,9.054871 
	C353.000916,6.433950 353.000916,4.171337 353.000458,1.454362 
	C363.593201,1.000000 374.186401,1.000000 385.000000,1.000000 
	C385.000000,11.353187 385.000000,21.707935 385.000000,32.531342 
z"/>
<path fill="#FAD60C" opacity="1.000000" stroke="none" 
	d="
M241.910400,330.895905 
	C240.213226,332.149750 238.673538,333.748901 236.795212,334.605408 
	C210.483826,346.603088 182.948868,352.672852 153.952667,350.946198 
	C122.005447,349.043793 93.644455,338.478546 70.331085,315.834320 
	C40.522552,286.881378 29.859997,251.178360 32.890652,210.578842 
	C32.926201,210.102692 33.187027,209.643341 33.968201,209.175766 
	C38.451733,219.265778 42.309761,229.356155 46.239075,239.758270 
	C51.248924,251.245605 55.495499,262.802307 61.367142,273.464020 
	C65.341125,280.679962 71.601067,286.636993 76.943527,293.473724 
	C79.660248,296.234131 82.271996,298.677917 85.053741,301.408875 
	C104.747086,319.100006 127.856544,328.765259 153.413696,332.865967 
	C174.699280,336.281250 196.140518,333.554199 217.507050,333.907257 
	C218.605133,333.925385 219.711441,333.445312 221.234146,333.175232 
	C222.734436,332.996918 223.814484,332.840546 225.250732,332.771576 
	C226.073868,332.743896 226.540817,332.628784 227.374893,332.636383 
	C230.154251,332.153015 232.566483,331.546906 235.335815,331.018494 
	C236.159042,330.975861 236.625168,330.855560 237.552292,330.838165 
	C239.312317,330.926025 240.611359,330.910950 241.910400,330.895905 
z"/>
<path fill="#FAD70B" opacity="1.000000" stroke="none" 
	d="
M162.007996,46.327202 
	C163.575150,45.766090 165.142303,45.204979 167.334808,44.684982 
	C168.337646,44.385784 168.715149,44.045475 169.092651,43.705170 
	C169.517899,43.529831 169.943130,43.354496 170.919174,43.394558 
	C173.005524,42.948383 174.541061,42.286812 176.076614,41.625244 
	C211.565826,31.415150 246.641312,31.638859 280.843811,46.617512 
	C304.325623,56.901142 322.717865,73.242401 335.848358,95.361443 
	C350.528046,120.090172 355.479279,146.927292 352.789612,175.571854 
	C351.394379,173.443756 350.370789,171.080688 349.293274,168.368042 
	C348.796722,166.677307 348.354065,165.336151 347.925903,163.704346 
	C347.708588,162.896622 347.476746,162.379547 347.177551,161.529846 
	C346.713501,160.146179 346.316772,159.095123 345.853607,157.801422 
	C345.526276,157.362518 345.265411,157.166275 344.911865,156.812683 
	C344.819183,156.655319 344.831299,156.290268 344.911072,155.919968 
	C344.304138,154.377655 343.617401,153.205658 342.964752,152.019394 
	C342.998840,152.005127 342.948639,152.059326 343.001770,151.707581 
	C342.381409,150.238312 341.707855,149.120789 341.011169,147.996384 
	C340.988037,147.989502 341.015594,147.949875 341.061005,147.626633 
	C340.579254,146.503082 340.052063,145.702789 339.373047,144.660004 
	C339.188141,144.229660 339.155060,144.041809 339.120941,143.478027 
	C337.894226,140.416382 336.668610,137.730682 335.289307,134.723495 
	C335.060028,133.934662 334.984375,133.467316 334.956238,132.646667 
	C334.292542,130.911163 333.581299,129.528946 332.878906,128.118652 
	C332.887726,128.090576 332.829041,128.085709 332.871460,127.722046 
	C331.721375,125.239754 330.528900,123.121124 329.147888,120.700912 
	C328.635498,119.766739 328.311646,119.134163 328.002625,118.170494 
	C325.667633,113.163116 324.792694,107.493790 319.228363,104.883614 
	C319.137299,104.846786 319.137146,104.650330 319.127686,104.345215 
	C318.529541,103.351631 317.940887,102.663162 317.236450,101.889297 
	C317.120697,101.803894 317.073517,101.520088 317.068359,101.203690 
	C315.841095,99.593605 314.619019,98.299919 313.150543,96.781303 
	C311.898071,95.398323 310.891998,94.240273 309.821045,92.792068 
	C309.158691,92.038208 308.561157,91.574493 307.719666,90.995956 
	C307.281738,90.585434 307.087769,90.289742 306.831360,89.713043 
	C306.168304,89.001457 305.567688,88.570869 304.716553,87.911652 
	C303.290497,86.615479 302.114990,85.547951 300.922089,84.182953 
	C299.496887,82.887428 298.089081,81.889381 296.331360,80.771988 
	C295.653412,80.295746 295.325378,79.938835 294.958710,79.320007 
	C294.198914,78.692261 293.477722,78.326424 292.484802,77.784805 
	C292.070129,77.447334 291.927246,77.285652 291.713776,76.798637 
	C289.741638,75.365646 287.840057,74.257988 285.914551,73.140594 
	C285.890564,73.130852 285.857483,73.091026 285.761230,72.766296 
	C275.613281,64.613167 263.808624,60.570156 251.830383,57.006756 
	C248.053986,55.883316 244.048492,55.529987 239.786713,54.858852 
	C238.957108,54.788406 238.488647,54.683311 237.897629,54.236145 
	C232.141052,52.936569 226.523346,51.285965 220.869904,51.152958 
	C204.627716,50.770828 188.370819,50.961807 172.120590,51.065853 
	C170.729736,51.074757 169.345474,52.109421 167.586441,52.735870 
	C166.461670,52.775650 165.708618,52.747139 164.647400,52.483887 
	C159.869827,52.490044 155.400421,52.730942 150.660736,52.986408 
	C151.311523,51.862499 151.707565,51.178516 152.103607,50.494530 
	C153.344055,49.901855 154.584488,49.309177 156.554688,48.775604 
	C158.858963,47.998875 160.433472,47.163040 162.007996,46.327202 
z"/>
<path fill="#F783C2" opacity="1.000000" stroke="none" 
	d="
M164.955551,52.718628 
	C165.708618,52.747139 166.461670,52.775650 168.040100,52.862587 
	C173.932587,53.136551 178.999741,53.352093 183.721985,53.786659 
	C182.589081,54.256191 181.818008,54.615261 181.010559,54.741215 
	C163.796112,57.426346 147.618210,63.271458 132.277328,71.331154 
	C107.456230,84.371513 86.802986,102.273720 70.796158,125.392883 
	C53.830383,149.897079 44.061905,176.923782 43.872925,206.833832 
	C43.805313,217.534622 45.983402,228.249588 46.868538,239.029068 
	C46.456318,239.215546 46.312054,239.331055 46.167793,239.446548 
	C42.309761,229.356155 38.451733,219.265778 34.297836,208.921234 
	C33.356056,199.578568 32.081470,190.483292 32.179062,181.402771 
	C32.505539,151.025787 42.850960,124.375916 62.936905,101.476234 
	C83.025856,78.573128 108.636932,65.085968 137.548752,57.077240 
	C138.819412,56.725258 140.076019,56.322491 142.161530,55.938614 
	C150.307770,54.862110 157.631653,53.790367 164.955551,52.718628 
z"/>
<path fill="#5885F3" opacity="1.000000" stroke="none" 
	d="
M237.091293,330.735229 
	C236.625168,330.855560 236.159042,330.975861 235.083145,330.749329 
	C231.984833,331.106232 229.496307,331.809967 227.007767,332.513672 
	C226.540817,332.628784 226.073868,332.743896 224.972916,332.550476 
	C222.306747,332.394623 220.274597,332.547302 217.807755,332.769653 
	C215.910400,332.810516 214.447723,332.781708 213.082458,332.416412 
	C215.138931,331.368530 217.138550,330.751221 219.049240,329.927582 
	C224.081757,327.758301 229.075607,325.499359 234.403412,323.210693 
	C235.154373,323.120911 235.586777,323.096497 236.237061,323.312927 
	C243.109604,320.853821 249.779251,318.189117 256.386627,315.378052 
	C256.848633,315.181458 256.849274,313.900421 257.057129,313.093811 
	C257.049805,313.063965 257.111176,313.067383 257.488739,313.059387 
	C259.927582,311.735840 261.988861,310.420288 264.044861,309.074585 
	C264.039551,309.044464 264.099121,309.058563 264.470032,309.050171 
	C266.570007,307.726929 268.299072,306.412109 270.241760,305.040039 
	C270.455414,304.982788 270.893188,304.919495 271.248413,304.923492 
	C272.748566,303.973846 273.893494,303.020203 275.018188,302.040680 
	C274.998016,302.014801 275.058197,302.040802 275.418579,302.028748 
	C279.198700,299.043640 282.618408,296.070618 286.310059,292.907837 
	C288.023102,291.453217 289.464264,290.188354 291.260254,288.927734 
	C293.700226,286.584961 295.785309,284.237946 297.925476,281.935120 
	C297.980560,281.979279 297.890625,281.870422 298.245605,281.885742 
	C299.314606,281.516602 300.252838,281.307007 300.709137,280.721680 
	C308.488007,270.743103 316.354218,260.825714 323.830231,250.623077 
	C325.574982,248.241989 325.950500,244.857620 326.983459,241.710022 
	C327.010895,241.485168 327.119446,241.045334 327.455322,240.982285 
	C329.164612,239.140793 331.106628,237.560501 331.807922,235.547897 
	C334.199646,228.684082 336.211212,221.684464 338.237488,214.698853 
	C338.765747,212.877701 338.820282,210.919159 339.080414,208.694641 
	C339.103882,207.928406 339.139313,207.491226 339.524536,206.957245 
	C341.244385,200.530685 343.202087,194.258270 343.827026,187.855774 
	C344.516632,180.790634 343.879120,173.603363 344.067657,166.475845 
	C344.107361,164.974503 345.223877,163.501633 345.994324,162.266968 
	C346.407288,163.032562 346.670197,163.546829 346.928528,164.409302 
	C347.336731,166.079361 347.749451,167.401230 348.099609,169.147446 
	C348.613922,171.419006 349.190826,173.266220 349.874756,175.373260 
	C350.038361,176.002014 350.094910,176.370941 350.093781,177.169403 
	C350.699921,180.047180 351.363739,182.495392 352.027527,184.943604 
	C352.600525,193.167786 354.009644,201.433838 353.600372,209.608841 
	C351.918274,243.206253 338.295898,271.413513 313.626587,294.221252 
	C294.799103,311.627991 272.534607,322.651642 247.149994,328.680511 
	C243.353256,329.177124 240.222275,329.956177 237.091293,330.735229 
z"/>
<path fill="#E6CB48" opacity="1.000000" stroke="none" 
	d="
M164.647400,52.483887 
	C157.631653,53.790367 150.307770,54.862110 142.559662,55.929581 
	C145.224091,54.063667 148.312714,52.202023 151.752472,50.417458 
	C151.707565,51.178516 151.311523,51.862499 150.660736,52.986408 
	C155.400421,52.730942 159.869827,52.490044 164.647400,52.483887 
z"/>
<path fill="#CEC166" opacity="1.000000" stroke="none" 
	d="
M350.151428,176.739868 
	C350.094910,176.370941 350.038361,176.002014 349.921234,174.988953 
	C349.541290,172.591034 349.221924,170.837265 349.012512,168.990540 
	C349.122437,168.897583 349.347198,168.717621 349.347198,168.717621 
	C350.370789,171.080688 351.394379,173.443756 352.731628,175.994568 
	C352.877197,177.697632 352.709106,179.212967 352.069336,180.770432 
	C351.115570,179.454987 350.633484,178.097427 350.151428,176.739868 
z"/>
<path fill="#4C97D5" opacity="1.000000" stroke="none" 
	d="
M237.552292,330.838165 
	C240.222275,329.956177 243.353256,329.177124 246.757660,328.658020 
	C245.487396,329.511200 243.943710,330.104401 242.155197,330.796753 
	C240.611359,330.910950 239.312317,330.926025 237.552292,330.838165 
z"/>
<path fill="#6786C3" opacity="1.000000" stroke="none" 
	d="
M350.093750,177.169418 
	C350.633484,178.097427 351.115570,179.454987 351.853302,181.092102 
	C352.108521,182.322525 352.108093,183.273361 352.067566,184.583908 
	C351.363739,182.495392 350.699921,180.047180 350.093750,177.169418 
z"/>
<path fill="#E6CB48" opacity="1.000000" stroke="none" 
	d="
M175.751907,41.498589 
	C174.541061,42.286812 173.005524,42.948383 171.268555,43.389374 
	C172.520508,42.569836 173.973846,41.970882 175.751907,41.498589 
z"/>
<path fill="#E6CB48" opacity="1.000000" stroke="none" 
	d="
M161.663635,46.277008 
	C160.433472,47.163040 158.858963,47.998875 156.905502,48.741730 
	C158.124130,47.841438 159.721695,47.034126 161.663635,46.277008 
z"/>
<path fill="#E6CB48" opacity="1.000000" stroke="none" 
	d="
M168.841461,43.629425 
	C168.715149,44.045475 168.337646,44.385784 167.692078,44.630898 
	C167.812759,44.208363 168.201508,43.881020 168.841461,43.629425 
z"/>
<path fill="#65C966" opacity="1.000000" stroke="none" 
	d="
M212.985046,332.752930 
	C214.447723,332.781708 215.910400,332.810516 218.122131,332.861755 
	C219.518768,332.988556 220.166351,333.092865 220.813919,333.197174 
	C219.711441,333.445312 218.605133,333.925385 217.507050,333.907257 
	C196.140518,333.554199 174.699280,336.281250 153.413696,332.865967 
	C127.856544,328.765259 104.747086,319.100006 85.160698,301.296844 
	C85.097664,300.897644 85.311676,300.673767 85.641830,300.772278 
	C91.790878,304.837311 97.321037,309.345673 103.499191,312.638062 
	C111.881493,317.105072 120.506874,321.407684 129.492477,324.373566 
	C139.703323,327.743958 150.314957,330.768677 160.954910,331.751923 
	C174.456024,332.999603 188.160889,332.042450 202.125031,332.284668 
	C205.976456,332.606537 209.480743,332.679749 212.985046,332.752930 
z"/>
<path fill="#65C966" opacity="1.000000" stroke="none" 
	d="
M46.239075,239.758270 
	C46.312054,239.331055 46.456318,239.215546 47.153618,239.225006 
	C49.103138,242.139435 51.060036,244.789154 51.796761,247.743164 
	C54.625904,259.087128 60.213516,269.003021 66.858101,278.421387 
	C70.257378,283.239685 73.802032,287.955383 77.170593,292.827576 
	C77.060211,292.937714 76.838570,293.157074 76.838570,293.157074 
	C71.601067,286.636993 65.341125,280.679962 61.367142,273.464020 
	C55.495499,262.802307 51.248924,251.245605 46.239075,239.758270 
z"/>
<path fill="#65C966" opacity="1.000000" stroke="none" 
	d="
M84.990707,301.009644 
	C82.271996,298.677917 79.660248,296.234131 76.943527,293.473724 
	C76.838570,293.157074 77.060211,292.937714 77.500008,292.927032 
	C80.397095,295.502167 82.854385,298.087952 85.311676,300.673767 
	C85.311676,300.673767 85.097664,300.897644 84.990707,301.009644 
z"/>
<path fill="#4C97D5" opacity="1.000000" stroke="none" 
	d="
M227.374893,332.636414 
	C229.496307,331.809967 231.984833,331.106232 234.726044,330.671631 
	C232.566483,331.546906 230.154251,332.153015 227.374893,332.636414 
z"/>
<path fill="#4C97D5" opacity="1.000000" stroke="none" 
	d="
M221.234146,333.175232 
	C220.166351,333.092865 219.518768,332.988556 218.556824,332.792114 
	C220.274597,332.547302 222.306747,332.394623 224.616730,332.463074 
	C223.814484,332.840546 222.734436,332.996918 221.234146,333.175232 
z"/>
<path fill="#31D295" opacity="1.000000" stroke="none" 
	d="
M85.641838,300.772278 
	C82.854385,298.087952 80.397095,295.502167 77.610390,292.816895 
	C73.802032,287.955383 70.257378,283.239685 66.858101,278.421387 
	C60.213516,269.003021 54.625904,259.087128 51.796761,247.743164 
	C51.060036,244.789154 49.103138,242.139435 47.421577,239.154022 
	C45.983402,228.249588 43.805313,217.534622 43.872925,206.833832 
	C44.061905,176.923782 53.830383,149.897079 70.796158,125.392883 
	C86.802986,102.273720 107.456230,84.371513 132.277328,71.331154 
	C147.618210,63.271458 163.796112,57.426346 181.010559,54.741215 
	C181.818008,54.615261 182.589081,54.256191 184.137848,53.865791 
	C197.355255,53.439827 209.812042,52.954582 222.268524,52.962158 
	C227.519409,52.965355 232.769638,54.008041 238.020172,54.578217 
	C238.488647,54.683311 238.957108,54.788406 240.024017,55.121914 
	C249.623505,58.253895 258.757050,60.810352 267.580902,64.178131 
	C273.888245,66.585426 279.780182,70.081024 285.857483,73.091019 
	C285.857483,73.091026 285.890564,73.130852 286.005859,73.452438 
	C288.008881,74.890678 289.896637,76.007324 291.784363,77.123962 
	C291.927246,77.285652 292.070129,77.447334 292.445526,78.054337 
	C293.451141,78.860413 294.224243,79.221169 294.997345,79.581924 
	C295.325378,79.938835 295.653412,80.295746 296.336792,81.069595 
	C298.107910,82.484497 299.523712,83.482452 300.939514,84.480423 
	C302.114990,85.547951 303.290497,86.615479 304.749451,88.205078 
	C305.653229,89.149452 306.273499,89.571754 306.893799,89.994057 
	C307.087769,90.289742 307.281738,90.585434 307.755920,91.297585 
	C308.652740,92.170105 309.269318,92.626167 309.885895,93.082230 
	C310.891998,94.240273 311.898071,95.398323 313.114441,97.090073 
	C314.574341,98.922546 315.823914,100.221313 317.073517,101.520088 
	C317.073517,101.520088 317.120697,101.803894 317.186646,102.182251 
	C317.880768,103.257172 318.508942,103.953751 319.137146,104.650330 
	C319.137146,104.650330 319.137299,104.846786 319.197571,105.222733 
	C322.167816,109.899643 325.077789,114.200615 327.987793,118.501579 
	C328.311646,119.134163 328.635498,119.766739 329.082886,121.051865 
	C330.413940,123.831505 331.621490,125.958603 332.829041,128.085709 
	C332.829041,128.085709 332.887726,128.090576 332.850220,128.468292 
	C333.511353,130.230667 334.210052,131.615311 334.908752,132.999954 
	C334.984375,133.467316 335.060028,133.934662 335.175018,135.078857 
	C336.516937,138.455124 337.819458,141.154556 339.122009,143.853973 
	C339.155060,144.041809 339.188141,144.229660 339.264465,144.981537 
	C339.278717,145.769699 339.249725,145.993851 339.167358,146.634979 
	C339.245239,148.686142 339.409149,150.318451 339.502502,151.954803 
	C340.053558,161.613007 341.030365,171.273666 340.997253,180.930542 
	C340.967377,189.640350 339.825928,198.346375 339.174744,207.054062 
	C339.139313,207.491226 339.103882,207.928406 338.788635,208.915451 
	C336.289856,215.793823 334.104889,222.134537 331.839874,228.446533 
	C330.325287,232.667267 328.696899,236.847153 327.119446,241.045334 
	C327.119446,241.045334 327.010895,241.485168 326.643372,241.789490 
	C320.451080,250.882553 314.780121,259.778870 308.740173,268.417145 
	C305.446716,273.127472 301.527588,277.400299 297.890625,281.870422 
	C297.890625,281.870422 297.980560,281.979279 297.596558,281.996399 
	C295.110168,284.316833 293.007782,286.620178 290.905426,288.923523 
	C289.464264,290.188354 288.023102,291.453217 285.961243,292.912933 
	C281.913116,296.085480 278.485657,299.063141 275.058197,302.040802 
	C275.058197,302.040802 274.998016,302.014801 274.671387,302.056030 
	C273.194244,303.038025 272.043732,303.978760 270.893188,304.919495 
	C270.893188,304.919495 270.455414,304.982788 269.894653,305.036194 
	C267.588989,306.412628 265.844055,307.735596 264.099121,309.058563 
	C264.099121,309.058563 264.039551,309.044464 263.694092,309.072937 
	C261.269470,310.423401 259.190338,311.745422 257.111206,313.067383 
	C257.111176,313.067383 257.049805,313.063965 256.690308,313.085754 
	C249.560287,316.429047 242.789734,319.750580 236.019165,323.072113 
	C235.586777,323.096497 235.154373,323.120911 234.025024,323.164917 
	C226.116867,325.350586 218.922287,327.574402 211.686951,329.656677 
	C208.425797,330.595245 205.083420,331.251587 201.777893,332.036011 
	C188.160889,332.042450 174.456024,332.999603 160.954910,331.751923 
	C150.314957,330.768677 139.703323,327.743958 129.492477,324.373566 
	C120.506874,321.407684 111.881493,317.105072 103.499191,312.638062 
	C97.321037,309.345673 91.790878,304.837311 85.641838,300.772278 
M202.441101,263.601288 
	C202.634003,262.764923 202.826889,261.928528 203.007965,261.020447 
	C203.007965,261.020447 203.080414,261.014832 203.829208,261.025848 
	C204.555145,261.869568 205.307159,262.692535 205.999298,263.563141 
	C206.624496,264.349579 207.184235,265.188049 207.893921,266.928009 
	C207.856750,271.624298 207.819565,276.320618 207.081100,281.194336 
	C204.671280,284.328583 205.813065,287.721375 208.269974,289.345367 
	C210.538467,290.844818 214.046814,290.468567 217.915405,290.873688 
	C220.943420,290.915161 223.971420,290.956665 227.586960,291.593048 
	C233.693619,291.729248 239.800949,291.979858 245.906601,291.943970 
	C248.264389,291.930145 250.618362,291.266235 252.982941,290.975006 
	C252.982941,290.975006 252.911499,290.946136 253.377960,290.787903 
	C253.676346,290.614838 253.877365,290.363800 254.544693,289.673706 
	C258.176666,285.796417 261.798767,281.909851 265.442413,278.043549 
	C277.192413,265.575623 288.988739,253.150864 300.658020,240.607941 
	C302.166779,238.986237 303.476105,236.903488 304.120453,234.802063 
	C306.568573,226.818283 302.263214,221.875519 295.721313,217.439880 
	C295.166687,217.255157 294.612030,217.070435 294.102356,216.954041 
	C294.102356,216.954041 294.128265,216.876465 294.034088,216.209702 
	C292.059113,214.418488 290.084167,212.627274 287.895996,210.408340 
	C287.683594,210.148163 287.411011,209.995148 286.820374,209.402878 
	C286.209564,208.610092 285.598755,207.817307 284.910278,206.351013 
	C284.216339,205.922852 283.522400,205.494675 282.274994,204.973541 
	C281.807770,204.442612 281.340515,203.911682 280.906006,202.600571 
	C279.616760,201.720627 278.327515,200.840683 276.890472,199.235840 
	C275.925781,196.782333 274.172516,194.343506 274.126465,191.872879 
	C273.860291,177.595276 273.976440,163.310089 274.015747,149.027618 
	C274.023193,146.330658 273.924774,143.885254 269.761627,143.750031 
	C269.504578,143.485672 269.247559,143.221313 268.633728,142.307693 
	C267.756042,140.346680 266.147369,138.396698 266.117584,136.422882 
	C265.900055,122.002495 266.033173,107.577141 265.954102,93.153900 
	C265.944702,91.436409 265.323425,89.722275 265.000427,88.001961 
	C265.000427,88.001961 264.992767,88.013481 264.994751,87.313118 
	C264.360748,86.547874 263.726715,85.782631 262.550446,84.462364 
	C257.254944,81.270981 252.120926,83.449768 246.220612,84.943130 
	C245.483307,85.044907 244.746017,85.146683 243.219009,85.138420 
	C237.813278,86.422012 232.407562,87.705605 226.329697,88.983383 
	C225.891098,89.068710 225.452484,89.154030 224.211548,89.134705 
	C219.814041,90.106758 215.416519,91.078819 210.341217,92.040390 
	C209.902298,92.139275 209.463364,92.238159 208.239151,92.274094 
	C195.679703,94.861061 183.093506,97.329475 170.587112,100.151588 
	C168.500885,100.622360 166.761658,102.631035 164.271576,103.912094 
	C163.880035,103.869064 163.488510,103.826035 162.605362,103.295135 
	C159.958221,103.483376 157.311081,103.671616 154.107437,103.797218 
	C153.738876,103.849892 153.370300,103.902573 152.152557,103.941093 
	C149.883652,104.318558 147.591187,104.590660 145.349884,105.091644 
	C135.428818,107.309273 125.522461,109.592674 114.952919,111.796036 
	C114.301392,111.891724 113.649857,111.987411 112.209816,112.030693 
	C110.179558,112.439384 108.149300,112.848076 105.491554,113.204506 
	C104.637482,113.738632 103.783409,114.272758 102.211281,115.015541 
	C101.145790,117.442474 99.241058,119.842827 99.163193,122.301048 
	C98.860550,131.855637 99.138138,141.428589 99.080315,151.836578 
	C99.116356,153.250977 99.152397,154.665375 99.068336,156.928482 
	C98.267105,160.962219 101.494781,165.737015 96.432037,169.316284 
	C96.194847,169.555206 96.062317,169.842484 96.049591,170.784683 
	C95.991013,171.184128 95.932434,171.583588 95.336754,172.619278 
	C95.220581,187.649887 95.104408,202.680511 94.401512,218.132309 
	C90.865822,220.592957 90.151970,224.202042 90.165268,228.193436 
	C90.206734,240.642914 90.153259,253.092728 90.206848,265.542114 
	C90.214607,267.343506 90.410828,269.193878 90.859085,270.934204 
	C92.185799,276.085114 96.035583,278.332764 101.036369,276.440826 
	C105.812187,274.633972 110.353554,272.207397 115.744339,269.974365 
	C121.579582,267.353577 127.414818,264.732758 133.640320,262.080444 
	C133.640320,262.080444 134.000458,261.926849 134.650452,261.919891 
	C135.724426,262.197510 136.798416,262.475159 137.320724,263.214203 
	C132.155411,271.194733 132.915863,279.492401 136.364258,288.561249 
	C138.981079,289.354187 141.585449,290.779877 144.216888,290.831726 
	C156.339203,291.070648 168.471024,290.797913 180.595291,290.981720 
	C185.595261,291.057526 188.689148,288.903809 190.785858,284.575836 
	C193.167694,279.659302 195.758881,274.844238 198.895493,269.851257 
	C199.260529,268.895416 199.625565,267.939545 200.000168,267.001221 
	C200.000168,267.001221 199.982254,266.991882 200.687546,266.892822 
	C201.079086,265.895996 201.470627,264.899170 201.994400,263.932312 
	C201.994400,263.932312 201.862381,263.920868 202.441101,263.601288 
z"/>
<path fill="#4C97D5" opacity="1.000000" stroke="none" 
	d="
M339.524536,206.957245 
	C339.825928,198.346375 340.967377,189.640350 340.997253,180.930542 
	C341.030365,171.273666 340.053558,161.613007 339.502502,151.954803 
	C339.409149,150.318451 339.245239,148.686142 339.382294,146.758713 
	C340.105652,146.960266 340.560608,147.455078 341.015594,147.949875 
	C341.015594,147.949875 340.988037,147.989502 340.962677,148.342865 
	C341.607758,149.817245 342.278198,150.938293 342.948639,152.059326 
	C342.948639,152.059326 342.998840,152.005127 342.953125,152.371414 
	C343.548706,153.921890 344.190002,155.106079 344.831299,156.290268 
	C344.831299,156.290268 344.819183,156.655319 344.848602,157.071259 
	C344.920502,157.659271 344.962982,157.831360 344.972717,158.349976 
	C345.241394,159.802902 345.542816,160.909271 345.844238,162.015640 
	C345.223877,163.501633 344.107361,164.974503 344.067657,166.475845 
	C343.879120,173.603363 344.516632,180.790634 343.827026,187.855774 
	C343.202087,194.258270 341.244385,200.530685 339.524536,206.957245 
z"/>
<path fill="#E6CB48" opacity="1.000000" stroke="none" 
	d="
M237.897629,54.236145 
	C232.769638,54.008041 227.519409,52.965355 222.268524,52.962158 
	C209.812042,52.954582 197.355255,53.439827 184.482727,53.646759 
	C178.999741,53.352093 173.932587,53.136551 168.411804,52.794292 
	C169.345474,52.109421 170.729736,51.074757 172.120590,51.065853 
	C188.370819,50.961807 204.627716,50.770828 220.869904,51.152958 
	C226.523346,51.285965 232.141052,52.936569 237.897629,54.236145 
z"/>
<path fill="#E6CB48" opacity="1.000000" stroke="none" 
	d="
M285.761230,72.766289 
	C279.780182,70.081024 273.888245,66.585426 267.580902,64.178131 
	C258.757050,60.810352 249.623505,58.253895 240.385147,55.087261 
	C244.048492,55.529987 248.053986,55.883316 251.830383,57.006756 
	C263.808624,60.570156 275.613281,64.613167 285.761230,72.766289 
z"/>
<path fill="#E6CB48" opacity="1.000000" stroke="none" 
	d="
M328.002625,118.170494 
	C325.077789,114.200615 322.167816,109.899643 319.288635,105.259560 
	C324.792694,107.493790 325.667633,113.163116 328.002625,118.170494 
z"/>
<path fill="#E6CB48" opacity="1.000000" stroke="none" 
	d="
M339.120941,143.478027 
	C337.819458,141.154556 336.516937,138.455124 335.328674,135.400330 
	C336.668610,137.730682 337.894226,140.416382 339.120941,143.478027 
z"/>
<path fill="#E6CB48" opacity="1.000000" stroke="none" 
	d="
M332.871460,127.722046 
	C331.621490,125.958603 330.413940,123.831505 329.271393,121.353447 
	C330.528900,123.121124 331.721375,125.239754 332.871460,127.722046 
z"/>
<path fill="#E6CB48" opacity="1.000000" stroke="none" 
	d="
M317.068359,101.203690 
	C315.823914,100.221313 314.574341,98.922546 313.360840,97.315002 
	C314.619019,98.299919 315.841095,99.593605 317.068359,101.203690 
z"/>
<path fill="#E6CB48" opacity="1.000000" stroke="none" 
	d="
M300.922089,84.182945 
	C299.523712,83.482452 298.107910,82.484497 296.686707,81.188934 
	C298.089081,81.889381 299.496887,82.887428 300.922089,84.182945 
z"/>
<path fill="#E6CB48" opacity="1.000000" stroke="none" 
	d="
M291.713776,76.798637 
	C289.896637,76.007324 288.008881,74.890678 286.029846,73.462181 
	C287.840057,74.257988 289.741638,75.365646 291.713776,76.798637 
z"/>
<path fill="#E6CB48" opacity="1.000000" stroke="none" 
	d="
M334.956238,132.646667 
	C334.210052,131.615311 333.511353,130.230667 332.841370,128.496368 
	C333.581299,129.528946 334.292542,130.911163 334.956238,132.646667 
z"/>
<path fill="#CEC166" opacity="1.000000" stroke="none" 
	d="
M345.994324,162.266968 
	C345.542816,160.909271 345.241394,159.802902 345.201599,158.355072 
	C345.463226,158.013626 345.920074,158.044067 345.920044,158.044067 
	C346.316772,159.095123 346.713501,160.146179 347.127197,161.850510 
	C347.177246,162.931244 347.210297,163.358719 347.165771,163.854935 
	C347.088226,163.923691 346.933075,164.061096 346.933075,164.061096 
	C346.670197,163.546829 346.407288,163.032562 345.994324,162.266968 
z"/>
<path fill="#CEC166" opacity="1.000000" stroke="none" 
	d="
M348.162170,168.723099 
	C347.749451,167.401230 347.336731,166.079361 346.928528,164.409302 
	C346.933075,164.061096 347.088226,163.923691 347.325439,163.929108 
	C347.562622,163.934509 347.911407,163.994980 347.911407,163.994980 
	C348.354065,165.336151 348.796722,166.677307 349.293274,168.368042 
	C349.347198,168.717621 349.122437,168.897583 348.836334,168.882217 
	C348.550232,168.866852 348.162170,168.723099 348.162170,168.723099 
z"/>
<path fill="#E6CB48" opacity="1.000000" stroke="none" 
	d="
M343.001770,151.707581 
	C342.278198,150.938293 341.607758,149.817245 340.985840,148.349731 
	C341.707855,149.120789 342.381409,150.238312 343.001770,151.707581 
z"/>
<path fill="#E6CB48" opacity="1.000000" stroke="none" 
	d="
M344.911072,155.919968 
	C344.190002,155.106079 343.548706,153.921890 342.919037,152.385681 
	C343.617401,153.205658 344.304138,154.377655 344.911072,155.919968 
z"/>
<path fill="#E6CB48" opacity="1.000000" stroke="none" 
	d="
M319.127686,104.345215 
	C318.508942,103.953751 317.880768,103.257172 317.302368,102.267654 
	C317.940887,102.663162 318.529541,103.351631 319.127686,104.345215 
z"/>
<path fill="#E6CB48" opacity="1.000000" stroke="none" 
	d="
M294.958710,79.320007 
	C294.224243,79.221169 293.451141,78.860413 292.717285,78.230118 
	C293.477722,78.326424 294.198914,78.692261 294.958710,79.320007 
z"/>
<path fill="#E6CB48" opacity="1.000000" stroke="none" 
	d="
M341.061005,147.626633 
	C340.560608,147.455078 340.105652,146.960266 339.435730,146.341736 
	C339.249725,145.993851 339.278717,145.769699 339.416260,145.224030 
	C340.052063,145.702789 340.579254,146.503082 341.061005,147.626633 
z"/>
<path fill="#E6CB48" opacity="1.000000" stroke="none" 
	d="
M306.831360,89.713051 
	C306.273499,89.571754 305.653229,89.149452 305.000000,88.433716 
	C305.567688,88.570869 306.168304,89.001457 306.831360,89.713051 
z"/>
<path fill="#E6CB48" opacity="1.000000" stroke="none" 
	d="
M309.821045,92.792068 
	C309.269318,92.626167 308.652740,92.170105 307.999878,91.412415 
	C308.561157,91.574493 309.158691,92.038208 309.821045,92.792068 
z"/>
<path fill="#E6CB48" opacity="1.000000" stroke="none" 
	d="
M347.925903,163.704346 
	C347.911407,163.994980 347.562622,163.934509 347.402985,163.860352 
	C347.210297,163.358719 347.177246,162.931244 347.194519,162.183136 
	C347.476746,162.379547 347.708588,162.896622 347.925903,163.704346 
z"/>
<path fill="#E6CB48" opacity="1.000000" stroke="none" 
	d="
M345.853638,157.801422 
	C345.920074,158.044067 345.463226,158.013626 345.234344,158.008530 
	C344.962982,157.831360 344.920502,157.659271 344.941284,157.228607 
	C345.265411,157.166275 345.526276,157.362518 345.853638,157.801422 
z"/>
<path fill="#4C97D5" opacity="1.000000" stroke="none" 
	d="
M298.245605,281.885742 
	C301.527588,277.400299 305.446716,273.127472 308.740173,268.417145 
	C314.780121,259.778870 320.451080,250.882553 326.615936,242.014343 
	C325.950500,244.857620 325.574982,248.241989 323.830231,250.623077 
	C316.354218,260.825714 308.488007,270.743103 300.709137,280.721680 
	C300.252838,281.307007 299.314606,281.516602 298.245605,281.885742 
z"/>
<path fill="#4C97D5" opacity="1.000000" stroke="none" 
	d="
M327.455322,240.982285 
	C328.696899,236.847153 330.325287,232.667267 331.839874,228.446533 
	C334.104889,222.134537 336.289856,215.793823 338.800629,209.244522 
	C338.820282,210.919159 338.765747,212.877701 338.237488,214.698853 
	C336.211212,221.684464 334.199646,228.684082 331.807922,235.547897 
	C331.106628,237.560501 329.164612,239.140793 327.455322,240.982285 
z"/>
<path fill="#4C97D5" opacity="1.000000" stroke="none" 
	d="
M202.125031,332.284668 
	C205.083420,331.251587 208.425797,330.595245 211.686951,329.656677 
	C218.922287,327.574402 226.116867,325.350586 233.706451,323.230286 
	C229.075607,325.499359 224.081757,327.758301 219.049240,329.927582 
	C217.138550,330.751221 215.138931,331.368530 213.082458,332.416412 
	C209.480743,332.679749 205.976456,332.606537 202.125031,332.284668 
z"/>
<path fill="#4C97D5" opacity="1.000000" stroke="none" 
	d="
M236.237061,323.312927 
	C242.789734,319.750580 249.560287,316.429047 256.697632,313.115601 
	C256.849274,313.900421 256.848633,315.181458 256.386627,315.378052 
	C249.779251,318.189117 243.109604,320.853821 236.237061,323.312927 
z"/>
<path fill="#4C97D5" opacity="1.000000" stroke="none" 
	d="
M275.418579,302.028748 
	C278.485657,299.063141 281.913116,296.085480 285.689362,293.102722 
	C282.618408,296.070618 279.198700,299.043640 275.418579,302.028748 
z"/>
<path fill="#4C97D5" opacity="1.000000" stroke="none" 
	d="
M291.260254,288.927734 
	C293.007782,286.620178 295.110168,284.316833 297.541473,281.952209 
	C295.785309,284.237946 293.700226,286.584961 291.260254,288.927734 
z"/>
<path fill="#4C97D5" opacity="1.000000" stroke="none" 
	d="
M264.470032,309.050171 
	C265.844055,307.735596 267.588989,306.412628 269.681030,305.093445 
	C268.299072,306.412109 266.570007,307.726929 264.470032,309.050171 
z"/>
<path fill="#4C97D5" opacity="1.000000" stroke="none" 
	d="
M257.488770,313.059387 
	C259.190338,311.745422 261.269470,310.423401 263.699371,309.103088 
	C261.988861,310.420288 259.927582,311.735840 257.488770,313.059387 
z"/>
<path fill="#4C97D5" opacity="1.000000" stroke="none" 
	d="
M271.248444,304.923523 
	C272.043732,303.978760 273.194244,303.038025 274.691589,302.081909 
	C273.893494,303.020203 272.748566,303.973846 271.248444,304.923523 
z"/>
<path fill="#6786C3" opacity="1.000000" stroke="none" 
	d="
M348.099609,169.147446 
	C348.162170,168.723099 348.550232,168.866852 348.726410,168.975159 
	C349.221924,170.837265 349.541290,172.591034 349.814178,174.729126 
	C349.190826,173.266220 348.613922,171.419006 348.099609,169.147446 
z"/>
<path fill="#045978" opacity="1.000000" stroke="none" 
	d="
M153.001740,103.955246 
	C153.370300,103.902573 153.738876,103.849892 154.829163,103.871658 
	C158.066238,103.891731 160.581604,103.837372 163.096970,103.783005 
	C163.488510,103.826035 163.880035,103.869064 164.958496,103.906860 
	C169.936707,101.509415 172.024887,104.807861 174.685501,107.221352 
	C168.363449,109.144386 167.458572,110.702515 170.728333,116.467834 
	C170.891754,126.255135 170.961838,135.582916 171.259888,145.206909 
	C173.327362,145.022095 175.166870,144.541077 177.314667,143.948349 
	C178.056992,143.820206 178.491028,143.803772 179.136749,144.091736 
	C182.529800,144.596405 185.796219,145.326904 188.866486,144.834503 
	C191.470093,144.416946 193.731689,142.102783 196.347626,141.478561 
	C202.384720,140.038010 208.557281,139.172974 214.641891,137.914978 
	C215.522064,137.732986 216.220245,136.670670 217.278809,135.843597 
	C218.385315,135.543823 219.215652,135.416168 220.313416,135.500137 
	C222.056702,135.223511 223.532562,134.735260 225.353745,134.122589 
	C226.424683,133.887924 227.150299,133.777679 228.106659,134.002823 
	C230.236572,134.384232 232.205841,134.779099 234.022354,134.413986 
	C240.743271,133.063171 247.424057,131.504105 254.088699,129.894012 
	C254.828186,129.715347 255.367508,128.708054 256.255219,127.897797 
	C256.750671,127.128784 256.990570,126.547028 257.477356,125.637619 
	C257.817719,118.863571 257.888428,112.416733 258.012970,105.970947 
	C258.091492,101.909767 260.609009,99.619003 263.988922,98.466827 
	C264.034058,113.043381 264.074585,127.151077 264.339111,141.499344 
	C266.038940,142.145584 267.514709,142.551270 268.990509,142.956955 
	C269.247559,143.221313 269.504578,143.485672 270.098175,144.146729 
	C271.196167,145.737671 271.957611,146.931931 272.485107,148.445892 
	C272.169250,164.394669 272.075653,180.023712 272.041077,195.652908 
	C272.039398,196.405243 272.557709,197.158737 272.974182,198.223328 
	C274.087189,199.068878 275.059906,199.602798 276.148376,200.332520 
	C276.473785,200.766479 276.733978,200.917801 277.032196,200.988281 
	C277.019684,200.994293 277.031952,200.961838 277.021973,201.398132 
	C276.954956,208.999481 276.955353,208.998627 270.487000,206.066666 
	C270.345367,206.002457 270.164825,206.023956 269.713501,206.030487 
	C268.959961,206.569305 268.495331,207.083160 267.955353,207.802155 
	C267.880005,208.007278 267.478485,208.179916 267.166504,208.245483 
	C266.681061,208.673950 266.507568,209.036850 266.320251,209.315582 
	C266.306396,209.231400 266.415771,209.362366 266.108704,209.361237 
	C265.520935,209.866898 265.240295,210.373672 264.869934,211.163300 
	C264.212555,211.972931 263.644928,212.499741 262.700470,213.019241 
	C259.467712,215.169052 256.611755,217.326202 253.015625,220.042374 
	C253.015625,210.422974 252.933640,201.495422 253.138931,192.574493 
	C253.160110,191.654861 254.744598,190.428955 255.863342,189.943314 
	C258.797302,188.669754 261.874847,187.727020 264.927368,186.206451 
	C264.959564,174.892349 264.959564,164.024216 264.959564,152.861526 
	C240.287399,157.874344 216.351578,162.677612 192.445419,167.624313 
	C182.913651,169.596634 173.447464,171.885864 163.670303,174.332230 
	C163.268600,182.850784 163.069092,191.067917 163.068451,199.285065 
	C163.068222,202.330261 161.892532,204.057388 159.014709,202.629700 
	C155.813919,201.041840 154.493027,202.805527 152.648560,205.022491 
	C150.027924,206.023926 147.737900,206.868530 145.267242,207.779739 
	C145.267242,200.878326 145.267242,194.470612 145.267242,187.939651 
	C148.436783,187.243408 151.407623,186.769531 154.248169,185.879669 
	C155.399231,185.519058 157.104370,184.276794 157.130920,183.392899 
	C157.359680,175.773148 157.262436,168.143616 157.262436,160.284424 
	C152.883438,161.097565 149.091110,161.801758 144.989090,162.563477 
	C144.989090,156.834839 145.100571,151.678101 144.943771,146.529526 
	C144.860840,143.805939 146.251495,143.509094 148.818451,143.872406 
	C152.531464,142.972687 155.776566,142.025040 159.039749,140.685577 
	C159.124237,139.515503 159.190613,138.737228 159.497528,137.627823 
	C159.512253,129.198807 159.286453,121.100945 159.017303,112.991318 
	C158.973953,112.979553 158.993881,112.891968 158.724625,112.630081 
	C156.607590,112.716339 154.759811,113.064484 152.630646,113.600739 
	C150.567810,114.108055 148.786392,114.427246 146.678131,114.515137 
	C142.375473,114.283836 138.399643,114.283836 133.548340,114.283836 
	C133.370377,113.443230 129.824799,111.015213 134.094513,109.336533 
	C137.200287,108.115448 140.994537,107.773346 144.325302,108.216347 
	C148.533905,108.776100 150.605637,106.353371 153.001740,103.955246 
z"/>
<path fill="#045C77" opacity="1.000000" stroke="none" 
	d="
M295.997437,217.979416 
	C302.263214,221.875519 306.568573,226.818283 304.120453,234.802063 
	C303.476105,236.903488 302.166779,238.986237 300.658020,240.607941 
	C288.988739,253.150864 277.192413,265.575623 265.442413,278.043549 
	C261.798767,281.909851 258.176666,285.796417 254.015503,289.912476 
	C253.294708,290.416229 253.103104,290.681183 252.911499,290.946136 
	C252.911499,290.946136 252.982941,290.975006 252.510635,290.915558 
	C243.692032,290.903473 235.345734,290.950836 226.999435,290.998169 
	C223.971420,290.956665 220.943420,290.915161 217.170181,290.668213 
	C209.441376,289.594604 208.417664,288.475739 207.782379,281.016907 
	C207.819565,276.320618 207.856750,271.624298 207.906708,266.004669 
	C207.919510,260.719666 207.919510,256.357971 207.919510,251.996307 
	C207.619263,251.913040 207.319016,251.829758 207.018768,251.746475 
	C205.705978,254.835922 204.393188,257.925385 203.080414,261.014832 
	C203.080414,261.014832 203.007965,261.020447 202.743256,261.231567 
	C202.273178,262.268738 202.067780,263.094818 201.862381,263.920868 
	C201.862381,263.920868 201.994400,263.932312 201.649323,264.065491 
	C200.863571,265.129730 200.422913,266.060822 199.982269,266.991882 
	C199.982254,266.991882 200.000168,267.001221 199.751999,267.163727 
	C199.088898,268.212494 198.673981,269.098785 198.259064,269.985046 
	C195.758881,274.844238 193.167694,279.659302 190.785858,284.575836 
	C188.689148,288.903809 185.595261,291.057526 180.595291,290.981720 
	C168.471024,290.797913 156.339203,291.070648 144.216888,290.831726 
	C141.585449,290.779877 138.981079,289.354187 136.182068,287.778717 
	C136.001465,281.663300 136.003067,276.330444 136.379639,270.998230 
	C137.504974,270.996857 138.255341,270.994751 139.241669,271.137939 
	C139.926117,271.861176 140.374588,272.439117 140.967834,273.200043 
	C141.112625,273.383026 141.285873,273.816315 141.584106,273.877228 
	C142.941605,273.939667 144.000839,273.941193 145.046967,273.963440 
	C145.033844,273.984100 145.048096,273.948700 145.118378,274.350952 
	C145.845245,275.161041 146.499100,275.919128 147.158844,275.924255 
	C157.480453,276.004883 167.803497,276.040924 178.123871,275.907318 
	C179.084167,275.894928 180.028732,274.665771 181.284683,273.835907 
	C182.240509,272.733917 183.013489,271.859344 183.525986,270.852173 
	C193.080200,252.075439 202.602982,233.282684 212.134094,214.494171 
	C212.979340,212.827942 213.836624,211.167847 214.688324,209.504898 
	C214.973526,209.625900 215.258743,209.746902 215.543945,209.867905 
	C215.543945,231.004761 215.543945,252.141617 215.543945,273.827850 
	C226.541214,273.827850 237.163895,273.911194 247.781952,273.727386 
	C249.184433,273.703125 250.873474,272.609344 251.906006,271.516144 
	C264.694550,257.976593 277.318909,244.281464 290.165436,230.797745 
	C292.415466,228.436111 291.888580,226.983978 289.810577,224.937286 
	C289.370056,224.513245 289.035706,224.355133 288.765930,224.181961 
	C288.830505,224.166901 288.751404,224.273346 288.821289,223.893463 
	C286.573120,221.695038 284.255096,219.876511 281.965759,218.028519 
	C281.994446,217.999069 281.954559,218.070709 281.836823,217.829712 
	C281.404327,217.437531 281.089569,217.286377 280.787445,217.135941 
	C280.800079,217.136658 280.767090,217.159866 280.834869,216.740479 
	C280.700073,212.005676 282.082336,209.226288 287.078278,209.949326 
	C287.411011,209.995148 287.683594,210.148163 287.841858,210.889038 
	C286.609741,215.055328 288.822113,216.976776 294.128265,216.876465 
	C294.128265,216.876465 294.102356,216.954041 294.216522,217.190247 
	C294.886261,217.610779 295.441864,217.795090 295.997437,217.979416 
z"/>
<path fill="#065B78" opacity="1.000000" stroke="none" 
	d="
M99.188431,156.079773 
	C99.152397,154.665375 99.116356,153.250977 99.493057,151.361877 
	C100.936890,148.484467 102.637131,146.147476 102.880646,143.667465 
	C103.823021,134.070374 101.876335,124.433556 102.929337,114.806885 
	C103.783409,114.272758 104.637482,113.738632 106.084732,113.458023 
	C108.784714,113.168732 110.891525,112.625916 112.998329,112.083099 
	C113.649857,111.987411 114.301392,111.891724 115.710625,111.867470 
	C121.309601,112.721069 122.207375,114.298332 120.646706,120.038681 
	C117.690475,120.483673 115.006622,120.497375 112.507156,121.183159 
	C110.411728,121.758072 106.874870,123.031929 106.817604,124.142784 
	C106.352165,133.171631 106.555984,142.235001 106.555984,151.688766 
	C111.800835,150.733521 116.144661,149.942383 120.746002,149.104355 
	C120.746002,155.588562 120.746002,161.686539 120.746002,167.859528 
	C115.754654,168.997726 110.950768,170.093185 106.202583,171.175934 
	C106.202583,179.599976 106.202583,187.688324 106.202583,196.082199 
	C111.192520,195.099701 115.875275,194.177673 120.775108,193.212906 
	C120.775108,201.087097 120.775108,208.713379 120.775108,216.592621 
	C118.983894,217.275284 117.143494,217.934860 115.335480,218.673691 
	C110.176468,220.781845 105.030632,222.922226 99.602875,225.354080 
	C98.912247,235.362442 98.454697,245.065399 98.177002,254.773499 
	C98.157257,255.463882 99.458427,256.192047 100.474274,256.856934 
	C102.066132,256.417480 103.329117,256.023712 104.709366,256.041931 
	C105.974648,257.301300 107.042130,258.307220 108.296799,258.944672 
	C109.256874,259.432434 110.693497,259.134949 111.501480,259.741638 
	C114.281662,261.829254 116.878838,264.160583 119.310455,266.201569 
	C118.376938,267.035339 116.687454,268.544281 114.997978,270.053253 
	C110.353554,272.207397 105.812187,274.633972 101.036369,276.440826 
	C96.035583,278.332764 92.185799,276.085114 90.859085,270.934204 
	C90.410828,269.193878 90.214607,267.343506 90.206848,265.542114 
	C90.153259,253.092728 90.206734,240.642914 90.165268,228.193436 
	C90.151970,224.202042 90.865822,220.592957 94.976959,217.881287 
	C96.017014,216.457794 96.481621,215.285324 96.966064,213.634430 
	C97.005173,198.781647 97.024445,184.407303 97.439308,170.013733 
	C98.888573,168.665451 100.846199,167.317383 100.818779,166.011002 
	C100.749077,162.690643 99.790924,159.388947 99.188431,156.079773 
z"/>
<path fill="#045C77" opacity="1.000000" stroke="none" 
	d="
M115.371155,270.013794 
	C116.687454,268.544281 118.376938,267.035339 119.310455,266.201569 
	C116.878838,264.160583 114.281662,261.829254 111.501480,259.741638 
	C110.693497,259.134949 109.256874,259.432434 108.296799,258.944672 
	C107.042130,258.307220 105.974648,257.301300 104.721954,256.051941 
	C104.617271,255.649933 104.648323,255.643082 104.919418,255.671524 
	C105.459236,255.474030 105.727966,255.248093 106.124649,254.902069 
	C106.252594,254.781998 106.599136,254.837357 106.881744,254.936859 
	C107.776520,254.685364 108.388687,254.334366 109.091881,253.873230 
	C109.182907,253.763092 109.451553,253.860535 109.923759,253.896408 
	C112.337952,254.242828 114.275887,254.770538 116.223000,254.806931 
	C118.471519,254.848953 121.728172,255.338501 122.812943,254.106644 
	C128.323944,247.848450 135.792648,249.952209 141.434326,248.277649 
	C143.154358,252.689758 144.580017,256.346771 145.863312,260.323669 
	C143.482056,262.765289 141.243164,264.887054 138.783691,266.897980 
	C138.288025,266.585327 138.097443,266.322266 137.991898,265.593506 
	C137.952408,264.376953 137.912399,263.564850 137.872391,262.752777 
	C136.798416,262.475159 135.724426,262.197510 134.324463,261.538696 
	C133.911453,260.341492 134.126190,259.105469 133.682129,258.786407 
	C132.221542,257.736969 130.588577,256.685669 128.880493,256.346130 
	C128.232193,256.217285 127.199730,258.020996 126.342361,258.943848 
	C127.819969,259.962250 129.237381,261.090881 130.804016,261.946198 
	C131.455368,262.301819 132.425110,262.074310 133.250061,262.111969 
	C127.414818,264.732758 121.579582,267.353577 115.371155,270.013794 
z"/>
<path fill="#035778" opacity="1.000000" stroke="none" 
	d="
M209.024445,92.337051 
	C209.463364,92.238159 209.902298,92.139275 210.964020,92.324921 
	C215.557632,92.369698 219.540878,92.236382 223.486084,91.776733 
	C224.085739,91.706863 224.509018,90.122971 225.013885,89.239365 
	C225.452484,89.154030 225.891098,89.068710 226.924683,89.271965 
	C229.345917,89.706352 231.172134,89.852158 232.998901,90.426559 
	C232.999817,92.568718 233.000214,94.282295 232.599152,96.047043 
	C225.399063,97.060043 218.580551,97.909081 211.822174,99.099518 
	C210.749786,99.288406 209.948227,101.014793 209.015320,102.013626 
	C209.009186,101.996933 209.034241,102.026688 208.589859,102.008362 
	C205.432068,102.636520 202.718643,103.283012 199.748352,104.042664 
	C199.125717,104.142921 198.759979,104.130013 197.950500,104.077026 
	C196.337250,104.022751 195.167740,104.008553 193.999374,103.601273 
	C195.333878,100.808907 196.667252,98.409645 198.375336,96.007332 
	C199.499496,96.002487 200.248962,96.000694 201.251434,96.278450 
	C203.348160,96.420860 205.237854,96.477898 207.014389,96.057098 
	C207.794510,95.872307 208.343964,94.713692 209.000244,93.719620 
	C209.009705,93.073669 209.017075,92.705360 209.024445,92.337051 
z"/>
<path fill="#0A5E74" opacity="1.000000" stroke="none" 
	d="
M120.998955,119.898544 
	C122.207375,114.298332 121.309601,112.721069 116.039551,111.895584 
	C125.522461,109.592674 135.428818,107.309273 145.349884,105.091644 
	C147.591187,104.590660 149.883652,104.318558 152.577148,103.948166 
	C150.605637,106.353371 148.533905,108.776100 144.325302,108.216347 
	C140.994537,107.773346 137.200287,108.115448 134.094513,109.336533 
	C129.824799,111.015213 133.370377,113.443230 133.548340,114.283836 
	C138.399643,114.283836 142.375473,114.283836 146.299316,114.647156 
	C137.831223,116.639832 129.415085,118.269180 120.998955,119.898544 
z"/>
<path fill="#0A5E74" opacity="1.000000" stroke="none" 
	d="
M200.998413,95.998901 
	C200.248962,96.000694 199.499496,96.002487 197.977295,96.051933 
	C190.644180,97.855217 184.083817,99.610840 177.337112,101.416328 
	C179.163208,105.644417 181.860840,106.700790 185.831741,105.651123 
	C187.420700,105.231102 189.248886,105.716049 190.596115,105.927414 
	C183.813385,107.429428 177.402695,108.793098 171.077911,110.138496 
	C170.906525,112.410057 170.770767,114.209198 170.635010,116.008331 
	C167.458572,110.702515 168.363449,109.144386 174.685501,107.221352 
	C172.024887,104.807861 169.936707,101.509415 165.253754,103.915344 
	C166.761658,102.631035 168.500885,100.622360 170.587112,100.151588 
	C183.093506,97.329475 195.679703,94.861061 208.631805,92.305573 
	C209.017075,92.705360 209.009705,93.073669 208.601303,93.720985 
	C205.799652,94.666290 203.399033,95.332588 200.998413,95.998901 
z"/>
<path fill="#016072" opacity="1.000000" stroke="none" 
	d="
M102.570312,114.911209 
	C101.876335,124.433556 103.823021,134.070374 102.880646,143.667465 
	C102.637131,146.147476 100.936890,148.484467 99.552795,150.940948 
	C99.138138,141.428589 98.860550,131.855637 99.163193,122.301048 
	C99.241058,119.842827 101.145790,117.442474 102.570312,114.911209 
z"/>
<path fill="#015777" opacity="1.000000" stroke="none" 
	d="
M233.000610,95.995865 
	C233.000214,94.282295 232.999817,92.568718 233.151962,90.125565 
	C234.296036,89.124527 235.308640,88.912529 236.275070,88.570244 
	C238.923660,87.632210 242.816467,89.569672 244.008713,85.248459 
	C244.746017,85.146683 245.483307,85.044907 246.796631,85.210037 
	C249.915298,85.652313 252.457947,85.827682 254.994537,86.387016 
	C254.659546,88.512459 254.330627,90.253937 253.577606,91.997490 
	C249.102112,92.664040 245.050751,93.328514 240.998474,93.605843 
	C240.451065,92.218697 239.904572,91.218689 239.358063,90.218674 
	C238.905579,91.146095 238.453094,92.073509 237.617401,93.078217 
	C237.023193,94.291573 236.812195,95.427635 236.511719,96.577705 
	C236.422241,96.591721 236.263885,96.503784 235.877686,96.340363 
	C234.661209,96.116585 233.830902,96.056221 233.000610,95.995865 
z"/>
<path fill="#055D70" opacity="1.000000" stroke="none" 
	d="
M286.949341,209.676102 
	C282.082336,209.226288 280.700073,212.005676 280.521179,216.638321 
	C276.757233,213.887604 273.374756,210.819672 270.000366,207.460815 
	C270.006500,206.781784 270.004456,206.393631 270.002441,206.005493 
	C270.164825,206.023956 270.345367,206.002457 270.487000,206.066666 
	C276.955353,208.998627 276.954956,208.999481 277.322357,201.522446 
	C278.712921,201.933899 279.793121,202.657333 280.873291,203.380753 
	C281.340515,203.911682 281.807770,204.442612 282.702026,205.279999 
	C283.748688,206.065826 284.368317,206.545166 284.987915,207.024521 
	C285.598755,207.817307 286.209564,208.610092 286.949341,209.676102 
z"/>
<path fill="#39C6A4" opacity="1.000000" stroke="none" 
	d="
M276.032623,200.136719 
	C275.059906,199.602798 274.087189,199.068878 273.030212,197.766525 
	C272.870331,180.707458 272.794678,164.416840 272.719025,148.126190 
	C271.957611,146.931931 271.196167,145.737671 270.359436,144.246704 
	C273.924774,143.885254 274.023193,146.330658 274.015747,149.027618 
	C273.976440,163.310089 273.860291,177.595276 274.126465,191.872879 
	C274.172516,194.343506 275.925781,196.782333 276.929779,199.633575 
	C276.969086,200.031326 276.900513,200.100952 276.682526,200.085632 
	C276.464539,200.070312 276.032623,200.136719 276.032623,200.136719 
z"/>
<path fill="#39C7A3" opacity="1.000000" stroke="none" 
	d="
M268.812134,142.632324 
	C267.514709,142.551270 266.038940,142.145584 264.621002,141.163742 
	C264.727539,123.405373 264.776184,106.223175 264.871399,88.783363 
	C264.940552,88.352692 264.963135,88.179642 264.985748,88.006584 
	C265.323425,89.722275 265.944702,91.436409 265.954102,93.153900 
	C266.033173,107.577141 265.900055,122.002495 266.117584,136.422882 
	C266.147369,138.396698 267.756042,140.346680 268.812134,142.632324 
z"/>
<path fill="#0A5E74" opacity="1.000000" stroke="none" 
	d="
M264.993103,88.004272 
	C264.963135,88.179642 264.940552,88.352692 264.684052,88.895012 
	C264.222778,89.462761 264.068787,89.707458 263.657135,89.998199 
	C262.884491,89.997437 262.442841,89.996849 261.842804,89.679344 
	C260.271851,86.620361 258.089874,85.409157 255.000610,86.003052 
	C252.457947,85.827682 249.915298,85.652313 247.169296,85.204010 
	C252.120926,83.449768 257.254944,81.270981 262.902405,85.029755 
	C263.833801,86.402596 264.413300,87.208038 264.992767,88.013481 
	C264.992767,88.013481 265.000427,88.001961 264.993103,88.004272 
z"/>
<path fill="#3CC4A6" opacity="1.000000" stroke="none" 
	d="
M96.946220,214.112869 
	C96.481621,215.285324 96.017014,216.457794 95.270325,217.670685 
	C95.104408,202.680511 95.220581,187.649887 95.653282,172.769928 
	C95.981087,184.903488 95.954514,196.886688 96.045395,208.868973 
	C96.058670,210.619125 96.632019,212.365005 96.946220,214.112869 
z"/>
<path fill="#0C626F" opacity="1.000000" stroke="none" 
	d="
M137.596558,262.983490 
	C137.912399,263.564850 137.952408,264.376953 137.675018,265.763062 
	C136.906631,267.890594 136.455658,269.444092 136.004669,270.997559 
	C136.003067,276.330444 136.001465,281.663300 135.999283,287.455292 
	C132.915863,279.492401 132.155411,271.194733 137.596558,262.983490 
z"/>
<path fill="#016B62" opacity="1.000000" stroke="none" 
	d="
M96.966057,213.634430 
	C96.632019,212.365005 96.058670,210.619125 96.045395,208.868973 
	C95.954514,196.886688 95.981087,184.903488 95.921829,172.451813 
	C95.932434,171.583588 95.991013,171.184128 96.262398,170.416550 
	C96.475204,170.048416 96.920013,169.935928 96.950943,169.960175 
	C96.981873,169.984406 97.043709,170.032944 97.043716,170.032944 
	C97.024445,184.407303 97.005173,198.781647 96.966057,213.634430 
z"/>
<path fill="#39BFA6" opacity="1.000000" stroke="none" 
	d="
M203.454803,261.020325 
	C204.393188,257.925385 205.705978,254.835922 207.018768,251.746475 
	C207.319016,251.829758 207.619263,251.913040 207.919510,251.996307 
	C207.919510,256.357971 207.919510,260.719666 207.846176,265.542480 
	C207.184235,265.188049 206.624496,264.349579 205.999298,263.563141 
	C205.307159,262.692535 204.555145,261.869568 203.454803,261.020325 
z"/>
<path fill="#065B78" opacity="1.000000" stroke="none" 
	d="
M133.445190,262.096191 
	C132.425110,262.074310 131.455368,262.301819 130.804016,261.946198 
	C129.237381,261.090881 127.819969,259.962250 126.342361,258.943848 
	C127.199730,258.020996 128.232193,256.217285 128.880493,256.346130 
	C130.588577,256.685669 132.221542,257.736969 133.682129,258.786407 
	C134.126190,259.105469 133.911453,260.341492 133.999451,261.542175 
	C134.000458,261.926849 133.640320,262.080444 133.445190,262.096191 
z"/>
<path fill="#0A5E74" opacity="1.000000" stroke="none" 
	d="
M243.613861,85.193436 
	C242.816467,89.569672 238.923660,87.632210 236.275070,88.570244 
	C235.308640,88.912529 234.296036,89.124527 233.151428,89.696976 
	C231.172134,89.852158 229.345917,89.706352 227.260757,89.274872 
	C232.407562,87.705605 237.813278,86.422012 243.613861,85.193436 
z"/>
<path fill="#39BFA6" opacity="1.000000" stroke="none" 
	d="
M207.431732,281.105621 
	C208.417664,288.475739 209.441376,289.594604 216.717010,290.690613 
	C214.046814,290.468567 210.538467,290.844818 208.269974,289.345367 
	C205.813065,287.721375 204.671280,284.328583 207.431732,281.105621 
z"/>
<path fill="#0A5E74" opacity="1.000000" stroke="none" 
	d="
M224.612717,89.187035 
	C224.509018,90.122971 224.085739,91.706863 223.486084,91.776733 
	C219.540878,92.236382 215.557632,92.369698 211.302917,92.330170 
	C215.416519,91.078819 219.814041,90.106758 224.612717,89.187035 
z"/>
<path fill="#055D70" opacity="1.000000" stroke="none" 
	d="
M294.081177,216.543091 
	C288.822113,216.976776 286.609741,215.055328 287.948486,211.102875 
	C290.084167,212.627274 292.059113,214.418488 294.081177,216.543091 
z"/>
<path fill="#39CAA2" opacity="1.000000" stroke="none" 
	d="
M227.293198,291.295593 
	C235.345734,290.950836 243.692032,290.903473 252.506195,290.877319 
	C250.618362,291.266235 248.264389,291.930145 245.906601,291.943970 
	C239.800949,291.979858 233.693619,291.729248 227.293198,291.295593 
z"/>
<path fill="#016072" opacity="1.000000" stroke="none" 
	d="
M99.128387,156.504120 
	C99.790924,159.388947 100.749077,162.690643 100.818779,166.011002 
	C100.846199,167.317383 98.888573,168.665451 97.439301,170.013733 
	C97.043709,170.032944 96.981873,169.984406 96.936783,169.741150 
	C96.891701,169.497894 96.836662,169.061325 96.836662,169.061325 
	C101.494781,165.737015 98.267105,160.962219 99.128387,156.504120 
z"/>
<path fill="#0A5E74" opacity="1.000000" stroke="none" 
	d="
M162.851166,103.539070 
	C160.581604,103.837372 158.066238,103.891731 155.107407,103.902969 
	C157.311081,103.671616 159.958221,103.483376 162.851166,103.539070 
z"/>
<path fill="#0A5E74" opacity="1.000000" stroke="none" 
	d="
M112.604073,112.056900 
	C110.891525,112.625916 108.784714,113.168732 106.398476,113.484161 
	C108.149300,112.848076 110.179558,112.439384 112.604073,112.056900 
z"/>
<path fill="#39C6A4" opacity="1.000000" stroke="none" 
	d="
M280.889648,202.990662 
	C279.793121,202.657333 278.712921,201.933899 277.332336,201.086151 
	C277.031952,200.961838 277.019684,200.994293 276.997070,200.767792 
	C276.974457,200.541306 276.900513,200.100952 276.900513,200.100952 
	C276.900513,200.100952 276.969086,200.031326 277.003662,199.996033 
	C278.327515,200.840683 279.616760,201.720627 280.889648,202.990662 
z"/>
<path fill="#39BFA6" opacity="1.000000" stroke="none" 
	d="
M200.334900,266.942352 
	C200.422913,266.060822 200.863571,265.129730 201.583191,264.050507 
	C201.470627,264.899170 201.079086,265.895996 200.334900,266.942352 
z"/>
<path fill="#39C7A3" opacity="1.000000" stroke="none" 
	d="
M264.993774,87.663300 
	C264.413300,87.208038 263.833801,86.402596 263.173523,85.307266 
	C263.726715,85.782631 264.360748,86.547874 264.993774,87.663300 
z"/>
<path fill="#39BFA6" opacity="1.000000" stroke="none" 
	d="
M198.577271,269.918152 
	C198.673981,269.098785 199.088898,268.212494 199.747223,267.154968 
	C199.625565,267.939545 199.260529,268.895416 198.577271,269.918152 
z"/>
<path fill="#39C6A4" opacity="1.000000" stroke="none" 
	d="
M284.949097,206.687775 
	C284.368317,206.545166 283.748688,206.065826 282.978760,205.326492 
	C283.522400,205.494675 284.216339,205.922852 284.949097,206.687775 
z"/>
<path fill="#39BFA6" opacity="1.000000" stroke="none" 
	d="
M202.151733,263.761078 
	C202.067780,263.094818 202.273178,262.268738 202.749176,261.267426 
	C202.826889,261.928528 202.634003,262.764923 202.151733,263.761078 
z"/>
<path fill="#055D70" opacity="1.000000" stroke="none" 
	d="
M295.859375,217.709656 
	C295.441864,217.795090 294.886261,217.610779 294.194031,217.156082 
	C294.612030,217.070435 295.166687,217.255157 295.859375,217.709656 
z"/>
<path fill="#39CAA2" opacity="1.000000" stroke="none" 
	d="
M253.144714,290.867004 
	C253.103104,290.681183 253.294708,290.416229 253.733688,290.093018 
	C253.877365,290.363800 253.676346,290.614838 253.144714,290.867004 
z"/>
<path fill="#3CC4A6" opacity="1.000000" stroke="none" 
	d="
M96.634354,169.188812 
	C96.836662,169.061325 96.891701,169.497894 96.905853,169.716919 
	C96.920013,169.935928 96.475204,170.048416 96.254822,170.113281 
	C96.062317,169.842484 96.194847,169.555206 96.634354,169.188812 
z"/>
<path fill="#FBFDFE" opacity="1.000000" stroke="none" 
	d="
M269.992249,207.751740 
	C273.374756,210.819672 276.757233,213.887604 280.453400,217.057709 
	C280.767090,217.159866 280.800079,217.136658 280.893433,217.386612 
	C281.309387,217.781281 281.631958,217.925995 281.954559,218.070709 
	C281.954559,218.070709 281.994446,217.999069 282.104797,218.331512 
	C284.393890,220.533737 286.572662,222.403549 288.751404,224.273346 
	C288.751404,224.273346 288.830505,224.166901 288.873108,224.444977 
	C289.249359,224.883102 289.583069,225.043152 289.916748,225.203217 
	C291.888580,226.983978 292.415466,228.436111 290.165436,230.797745 
	C277.318909,244.281464 264.694550,257.976593 251.906006,271.516144 
	C250.873474,272.609344 249.184433,273.703125 247.781952,273.727386 
	C237.163895,273.911194 226.541214,273.827850 215.543945,273.827850 
	C215.543945,252.141617 215.543945,231.004761 215.543945,209.867905 
	C215.258743,209.746902 214.973526,209.625900 214.688324,209.504898 
	C213.836624,211.167847 212.979340,212.827942 212.134094,214.494171 
	C202.602982,233.282684 193.080200,252.075439 183.525986,270.852173 
	C183.013489,271.859344 182.240509,272.733917 180.833771,273.705688 
	C168.401886,273.810364 156.724991,273.879547 145.048096,273.948730 
	C145.048096,273.948700 145.033844,273.984100 144.749466,273.830536 
	C143.405350,273.723419 142.345612,273.769867 141.285873,273.816284 
	C141.285873,273.816315 141.112625,273.383026 141.103821,272.874329 
	C144.743195,265.916901 148.391388,259.468140 152.255035,252.873169 
	C152.688095,252.266464 152.905701,251.805984 153.393051,251.168976 
	C153.898178,250.398697 154.133575,249.804916 154.284576,249.169250 
	C154.200165,249.127365 154.321106,249.271881 154.583084,249.094696 
	C155.298843,247.970901 155.752625,247.024292 156.427551,245.964706 
	C156.815338,245.392670 156.981995,244.933609 157.420853,244.270264 
	C158.440170,242.710938 159.187271,241.355911 160.165009,239.745209 
	C167.307037,227.790283 174.218445,216.091064 181.650177,203.511093 
	C175.103653,204.771225 169.634735,205.823929 164.139221,206.416443 
	C164.058868,195.314453 164.005157,184.672638 163.951416,174.030823 
	C173.447464,171.885864 182.913651,169.596634 192.445419,167.624313 
	C216.351578,162.677612 240.287399,157.874344 264.959564,152.861526 
	C264.959564,164.024216 264.959564,174.892349 264.515167,186.284607 
	C259.400604,187.714737 254.730408,188.620743 250.138504,189.511566 
	C250.138504,202.235306 250.138504,214.437454 250.138504,227.909515 
	C254.939224,222.387436 259.008240,217.707001 263.077271,213.026566 
	C263.644928,212.499741 264.212555,211.972931 265.120148,211.051636 
	C265.778656,210.225571 266.097229,209.793976 266.415771,209.362366 
	C266.415771,209.362366 266.306396,209.231400 266.587067,209.194031 
	C267.071320,208.831085 267.274902,208.505493 267.478485,208.179916 
	C267.478485,208.179916 267.880005,208.007278 268.283783,207.783234 
	C269.122467,207.623367 269.557343,207.687561 269.992249,207.751740 
z"/>
<path fill="#FBFEFE" opacity="1.000000" stroke="none" 
	d="
M120.646706,120.038681 
	C129.415085,118.269180 137.831223,116.639832 146.626160,114.878464 
	C148.786392,114.427246 150.567810,114.108055 153.072906,113.603050 
	C155.529022,113.242157 157.261444,113.067062 158.993881,112.891968 
	C158.993881,112.891968 158.973953,112.979553 159.008026,113.458740 
	C159.113739,121.944939 159.185364,129.951950 159.256989,137.958969 
	C159.190613,138.737228 159.124237,139.515503 158.668442,140.802353 
	C154.969528,142.148788 151.660019,142.986633 148.350525,143.824493 
	C146.251495,143.509094 144.860840,143.805939 144.943771,146.529526 
	C145.100571,151.678101 144.989090,156.834839 144.989090,162.563477 
	C149.091110,161.801758 152.883438,161.097565 157.262436,160.284424 
	C157.262436,168.143616 157.359680,175.773148 157.130920,183.392899 
	C157.104370,184.276794 155.399231,185.519058 154.248169,185.879669 
	C151.407623,186.769531 148.436783,187.243408 145.267242,187.939651 
	C145.267242,194.470612 145.267242,200.878326 145.267242,207.779739 
	C147.737900,206.868530 150.027924,206.023926 153.060150,205.022308 
	C155.087051,204.464081 156.371780,204.062851 157.877213,203.592712 
	C158.117279,206.506058 158.303940,208.771194 158.400055,211.493774 
	C158.364746,218.283524 158.419968,224.615829 158.360138,231.291122 
	C158.318390,232.104630 158.391693,232.575165 158.269333,233.361084 
	C157.732666,234.034882 157.391678,234.393311 156.736542,234.761734 
	C154.904556,235.483337 153.386673,236.194931 151.496368,236.933701 
	C137.233154,242.594101 123.342354,248.227325 109.451553,253.860535 
	C109.451553,253.860535 109.182907,253.763092 108.756638,253.853699 
	C107.753296,254.242004 107.176216,254.539688 106.599136,254.837357 
	C106.599136,254.837357 106.252594,254.781998 105.853485,254.884277 
	C105.185684,255.205383 104.917000,255.424225 104.648315,255.643082 
	C104.648323,255.643082 104.617271,255.649933 104.604691,255.639923 
	C103.329117,256.023712 102.066132,256.417480 100.434860,256.398102 
	C100.004257,245.673264 99.941933,235.361603 99.879608,225.049927 
	C105.030632,222.922226 110.176468,220.781845 115.335480,218.673691 
	C117.143494,217.934860 118.983894,217.275284 120.775108,216.592621 
	C120.775108,208.713379 120.775108,201.087097 120.775108,193.212906 
	C115.875275,194.177673 111.192520,195.099701 106.202583,196.082199 
	C106.202583,187.688324 106.202583,179.599976 106.202583,171.175934 
	C110.950768,170.093185 115.754654,168.997726 120.746002,167.859528 
	C120.746002,161.686539 120.746002,155.588562 120.746002,149.104355 
	C116.144661,149.942383 111.800835,150.733521 106.555984,151.688766 
	C106.555984,142.235001 106.352165,133.171631 106.817604,124.142784 
	C106.874870,123.031929 110.411728,121.758072 112.507156,121.183159 
	C115.006622,120.497375 117.690475,120.483673 120.646706,120.038681 
z"/>
<path fill="#FBFEFE" opacity="1.000000" stroke="none" 
	d="
M170.728333,116.467834 
	C170.770767,114.209198 170.906525,112.410057 171.077911,110.138496 
	C177.402695,108.793098 183.813385,107.429428 190.883499,105.969513 
	C192.046585,105.633957 192.550247,105.394653 193.445862,105.181061 
	C195.356628,104.843552 196.875443,104.480324 198.394241,104.117096 
	C198.759979,104.130013 199.125717,104.142921 200.142761,104.083176 
	C203.540802,103.349243 206.287521,102.687965 209.034241,102.026688 
	C209.034241,102.026688 209.009186,101.996933 209.429840,102.046028 
	C218.654968,100.231346 227.459427,98.367569 236.263885,96.503784 
	C236.263885,96.503784 236.422241,96.591721 236.896652,96.508652 
	C243.240891,95.223816 249.110733,94.022049 255.312531,92.887497 
	C256.173126,93.301216 256.701782,93.647728 257.142944,94.455872 
	C257.113800,105.266769 257.172150,115.616020 257.230469,125.965271 
	C256.990570,126.547028 256.750671,127.128784 255.848297,127.854691 
	C246.082504,129.888382 236.979218,131.777908 227.875916,133.667435 
	C227.150299,133.777679 226.424683,133.887924 224.990051,134.098724 
	C222.869339,134.562363 221.457672,134.925446 220.045990,135.288513 
	C219.215652,135.416168 218.385315,135.543823 216.859360,135.801453 
	C203.750839,138.550079 191.337952,141.168716 178.925049,143.787338 
	C178.491028,143.803772 178.056992,143.820206 176.934387,143.901428 
	C174.507843,144.281052 172.769882,144.595871 171.031921,144.910706 
	C170.961838,135.582916 170.891754,126.255135 170.728333,116.467834 
z"/>
<path fill="#125C70" opacity="1.000000" stroke="none" 
	d="
M262.700470,213.019241 
	C259.008240,217.707001 254.939224,222.387436 250.138504,227.909515 
	C250.138504,214.437454 250.138504,202.235306 250.138504,189.511566 
	C254.730408,188.620743 259.400604,187.714737 264.482971,186.730591 
	C261.874847,187.727020 258.797302,188.669754 255.863342,189.943314 
	C254.744598,190.428955 253.160110,191.654861 253.138931,192.574493 
	C252.933640,201.495422 253.015625,210.422974 253.015625,220.042374 
	C256.611755,217.326202 259.467712,215.169052 262.700470,213.019241 
z"/>
<path fill="#0A5E74" opacity="1.000000" stroke="none" 
	d="
M179.136749,144.091736 
	C191.337952,141.168716 203.750839,138.550079 216.583191,135.973602 
	C216.220245,136.670670 215.522064,137.732986 214.641891,137.914978 
	C208.557281,139.172974 202.384720,140.038010 196.347626,141.478561 
	C193.731689,142.102783 191.470093,144.416946 188.866486,144.834503 
	C185.796219,145.326904 182.529800,144.596405 179.136749,144.091736 
z"/>
<path fill="#27687A" opacity="1.000000" stroke="none" 
	d="
M158.490585,211.036331 
	C158.303940,208.771194 158.117279,206.506058 157.877213,203.592712 
	C156.371780,204.062851 155.087051,204.464081 153.390747,204.865463 
	C154.493027,202.805527 155.813919,201.041840 159.014709,202.629700 
	C161.892532,204.057388 163.068222,202.330261 163.068451,199.285065 
	C163.069092,191.067917 163.268600,182.850784 163.670319,174.332230 
	C164.005157,184.672638 164.058868,195.314453 163.747711,206.440735 
	C161.752090,208.295578 160.121338,209.665955 158.490585,211.036331 
z"/>
<path fill="#0A5E74" opacity="1.000000" stroke="none" 
	d="
M257.477356,125.637619 
	C257.172150,115.616020 257.113800,105.266769 257.488647,94.456306 
	C258.613190,93.997719 259.304565,94.000328 260.227478,94.274658 
	C261.634521,94.698860 262.810028,94.851357 263.988373,95.378143 
	C263.988922,96.500946 263.986633,97.249466 263.984314,97.997978 
	C260.609009,99.619003 258.091492,101.909767 258.012970,105.970947 
	C257.888428,112.416733 257.817719,118.863571 257.477356,125.637619 
z"/>
<path fill="#006068" opacity="1.000000" stroke="none" 
	d="
M263.988922,98.466827 
	C263.986633,97.249466 263.988922,96.500946 263.992493,94.960922 
	C263.991913,92.779060 263.990021,91.388718 263.988159,89.998375 
	C264.068787,89.707458 264.222778,89.462761 264.637512,89.152626 
	C264.776184,106.223175 264.727539,123.405373 264.396973,140.923172 
	C264.074585,127.151077 264.034058,113.043381 263.988922,98.466827 
z"/>
<path fill="#0A5E74" opacity="1.000000" stroke="none" 
	d="
M228.106659,134.002823 
	C236.979218,131.777908 246.082504,129.888382 255.592743,128.041962 
	C255.367508,128.708054 254.828186,129.715347 254.088699,129.894012 
	C247.424057,131.504105 240.743271,133.063171 234.022354,134.413986 
	C232.205841,134.779099 230.236572,134.384232 228.106659,134.002823 
z"/>
<path fill="#006169" opacity="1.000000" stroke="none" 
	d="
M272.485107,148.445892 
	C272.794678,164.416840 272.870331,180.707458 272.889954,197.454895 
	C272.557709,197.158737 272.039398,196.405243 272.041077,195.652908 
	C272.075653,180.023712 272.169250,164.394669 272.485107,148.445892 
z"/>
<path fill="#0A5E74" opacity="1.000000" stroke="none" 
	d="
M159.497528,137.627823 
	C159.185364,129.951950 159.113739,121.944939 159.051376,113.470505 
	C159.286453,121.100945 159.512253,129.198807 159.497528,137.627823 
z"/>
<path fill="#0A5E74" opacity="1.000000" stroke="none" 
	d="
M148.818451,143.872406 
	C151.660019,142.986633 154.969528,142.148788 158.650345,141.194183 
	C155.776566,142.025040 152.531464,142.972687 148.818451,143.872406 
z"/>
<path fill="#0A5E74" opacity="1.000000" stroke="none" 
	d="
M171.259888,145.206909 
	C172.769882,144.595871 174.507843,144.281052 176.626083,144.013138 
	C175.166870,144.541077 173.327362,145.022095 171.259888,145.206909 
z"/>
<path fill="#0A5E74" opacity="1.000000" stroke="none" 
	d="
M220.313416,135.500153 
	C221.457672,134.925446 222.869339,134.562363 224.644714,134.223145 
	C223.532562,134.735260 222.056702,135.223511 220.313416,135.500153 
z"/>
<path fill="#0A5E74" opacity="1.000000" stroke="none" 
	d="
M158.724625,112.630081 
	C157.261444,113.067062 155.529022,113.242157 153.354309,113.414932 
	C154.759811,113.064484 156.607590,112.716339 158.724625,112.630081 
z"/>
<path fill="#125C70" opacity="1.000000" stroke="none" 
	d="
M270.000366,207.460831 
	C269.557343,207.687561 269.122467,207.623367 268.359131,207.578094 
	C268.495331,207.083160 268.959961,206.569305 269.713501,206.030487 
	C270.004456,206.393631 270.006500,206.781784 270.000366,207.460831 
z"/>
<path fill="#125C70" opacity="1.000000" stroke="none" 
	d="
M266.108704,209.361252 
	C266.097229,209.793976 265.778656,210.225571 265.209869,210.768814 
	C265.240295,210.373672 265.520935,209.866898 266.108704,209.361252 
z"/>
<path fill="#125C70" opacity="1.000000" stroke="none" 
	d="
M267.166504,208.245483 
	C267.274902,208.505493 267.071320,208.831085 266.600922,209.278214 
	C266.507568,209.036850 266.681061,208.673950 267.166504,208.245483 
z"/>
<path fill="#055D70" opacity="1.000000" stroke="none" 
	d="
M276.682526,200.085632 
	C276.900513,200.100952 276.974457,200.541306 277.009583,200.761795 
	C276.733978,200.917801 276.473785,200.766479 276.148376,200.332520 
	C276.032623,200.136719 276.464539,200.070312 276.682526,200.085632 
z"/>
<path fill="#06536C" opacity="1.000000" stroke="none" 
	d="
M145.118378,274.350952 
	C156.724991,273.879547 168.401886,273.810364 180.529694,273.871399 
	C180.028732,274.665771 179.084167,275.894928 178.123871,275.907318 
	C167.803497,276.040924 157.480453,276.004883 147.158844,275.924255 
	C146.499100,275.919128 145.845245,275.161041 145.118378,274.350952 
z"/>
<path fill="#0C626F" opacity="1.000000" stroke="none" 
	d="
M152.039581,253.019409 
	C148.391388,259.468140 144.743195,265.916901 140.959030,272.691345 
	C140.374588,272.439117 139.926117,271.861176 139.240570,270.739624 
	C139.003738,269.133636 139.003998,268.071259 139.004272,267.008850 
	C141.243164,264.887054 143.482056,262.765289 146.137238,260.122620 
	C148.382202,257.407623 150.210892,255.213516 152.039581,253.019409 
z"/>
<path fill="#055D70" opacity="1.000000" stroke="none" 
	d="
M288.821289,223.893463 
	C286.572662,222.403549 284.393890,220.533737 282.076111,218.360962 
	C284.255096,219.876511 286.573120,221.695038 288.821289,223.893463 
z"/>
<path fill="#065B78" opacity="1.000000" stroke="none" 
	d="
M138.783691,266.898010 
	C139.003998,268.071259 139.003738,269.133636 139.004593,270.594360 
	C138.255341,270.994751 137.504974,270.996857 136.379639,270.998230 
	C136.455658,269.444092 136.906631,267.890594 137.674500,266.167542 
	C138.097443,266.322266 138.288025,266.585327 138.783691,266.898010 
z"/>
<path fill="#0C626F" opacity="1.000000" stroke="none" 
	d="
M141.584106,273.877197 
	C142.345612,273.769867 143.405350,273.723419 144.762589,273.809875 
	C144.000839,273.941193 142.941605,273.939667 141.584106,273.877197 
z"/>
<path fill="#055D70" opacity="1.000000" stroke="none" 
	d="
M281.836823,217.829712 
	C281.631958,217.925995 281.309387,217.781281 280.880798,217.385895 
	C281.089569,217.286377 281.404327,217.437531 281.836823,217.829712 
z"/>
<path fill="#055D70" opacity="1.000000" stroke="none" 
	d="
M289.810577,224.937286 
	C289.583069,225.043152 289.249359,224.883102 288.808533,224.460037 
	C289.035706,224.355133 289.370056,224.513245 289.810577,224.937286 
z"/>
<path fill="#0B5161" opacity="1.000000" stroke="none" 
	d="
M99.602875,225.354080 
	C99.941933,235.361603 100.004257,245.673264 100.105988,256.443787 
	C99.458427,256.192047 98.157257,255.463882 98.177002,254.773499 
	C98.454697,245.065399 98.912247,235.362442 99.602875,225.354080 
z"/>
<path fill="#065B78" opacity="1.000000" stroke="none" 
	d="
M152.255035,252.873169 
	C150.210892,255.213516 148.382202,257.407623 146.279587,259.802765 
	C144.580017,256.346771 143.154358,252.689758 141.434326,248.277649 
	C135.792648,249.952209 128.323944,247.848450 122.812943,254.106644 
	C121.728172,255.338501 118.471519,254.848953 116.223000,254.806931 
	C114.275887,254.770538 112.337952,254.242828 109.923759,253.896408 
	C123.342354,248.227325 137.233154,242.594101 151.853394,236.975098 
	C154.072113,236.243439 155.561401,235.497589 157.050674,234.751740 
	C157.391678,234.393311 157.732666,234.034882 158.514938,233.306763 
	C158.795868,232.274078 158.635529,231.611099 158.475189,230.948135 
	C158.419968,224.615829 158.364746,218.283524 158.400055,211.493774 
	C160.121338,209.665955 161.752090,208.295578 163.774323,206.900909 
	C169.634735,205.823929 175.103653,204.771225 181.650177,203.511093 
	C174.218445,216.091064 167.307037,227.790283 159.764832,239.759613 
	C158.472244,241.511353 157.810455,242.992950 157.148651,244.474564 
	C156.981995,244.933609 156.815338,245.392670 156.047897,245.993134 
	C155.071777,247.180328 154.696442,248.226105 154.321106,249.271881 
	C154.321106,249.271881 154.200165,249.127365 153.945831,249.269257 
	C153.502090,250.055939 153.312714,250.700729 153.123322,251.345505 
	C152.905701,251.805984 152.688095,252.266464 152.255035,252.873169 
z"/>
<path fill="#065B78" opacity="1.000000" stroke="none" 
	d="
M106.881744,254.936859 
	C107.176216,254.539688 107.753296,254.242004 108.665611,253.963837 
	C108.388687,254.334366 107.776520,254.685364 106.881744,254.936859 
z"/>
<path fill="#065B78" opacity="1.000000" stroke="none" 
	d="
M104.919411,255.671524 
	C104.917000,255.424225 105.185684,255.205383 105.725533,255.004333 
	C105.727966,255.248093 105.459236,255.474030 104.919411,255.671524 
z"/>
<path fill="#015878" opacity="1.000000" stroke="none" 
	d="
M193.053894,105.155342 
	C192.550247,105.394653 192.046585,105.633957 191.255554,105.831161 
	C189.248886,105.716049 187.420700,105.231102 185.831741,105.651123 
	C181.860840,106.700790 179.163208,105.644417 177.337112,101.416328 
	C184.083817,99.610840 190.644180,97.855217 197.602585,96.054985 
	C196.667252,98.409645 195.333878,100.808907 193.773453,103.732201 
	C193.382233,104.555931 193.218063,104.855637 193.053894,105.155342 
z"/>
<path fill="#0A5E74" opacity="1.000000" stroke="none" 
	d="
M235.877686,96.340363 
	C227.459427,98.367569 218.654968,100.231346 209.435974,102.062729 
	C209.948227,101.014793 210.749786,99.288406 211.822174,99.099518 
	C218.580551,97.909081 225.399063,97.060043 232.599152,96.047043 
	C233.830902,96.056221 234.661209,96.116585 235.877686,96.340363 
z"/>
<path fill="#015878" opacity="1.000000" stroke="none" 
	d="
M201.251434,96.278442 
	C203.399033,95.332588 205.799652,94.666290 208.599213,93.998611 
	C208.343964,94.713692 207.794510,95.872307 207.014389,96.057098 
	C205.237854,96.477898 203.348160,96.420860 201.251434,96.278442 
z"/>
<path fill="#0A5E74" opacity="1.000000" stroke="none" 
	d="
M208.589859,102.008362 
	C206.287521,102.687965 203.540802,103.349243 200.399658,103.970009 
	C202.718643,103.283012 205.432068,102.636520 208.589859,102.008362 
z"/>
<path fill="#0A5E74" opacity="1.000000" stroke="none" 
	d="
M193.445862,105.181061 
	C193.218063,104.855637 193.382233,104.555931 193.772324,104.125290 
	C195.167740,104.008553 196.337250,104.022751 197.950500,104.077019 
	C196.875443,104.480324 195.356628,104.843552 193.445862,105.181061 
z"/>
<path fill="#045978" opacity="1.000000" stroke="none" 
	d="
M259.995941,94.002945 
	C259.304565,94.000328 258.613190,93.997719 257.576111,93.994675 
	C256.701782,93.647728 256.173126,93.301216 255.196350,92.700256 
	C254.543900,92.221886 254.295074,92.071762 254.001709,91.995415 
	C254.330627,90.253937 254.659546,88.512459 254.994537,86.387016 
	C258.089874,85.409157 260.271851,86.620361 261.701538,89.974731 
	C261.144440,91.725685 260.570190,92.864319 259.995941,94.002945 
z"/>
<path fill="#0A5E74" opacity="1.000000" stroke="none" 
	d="
M253.577591,91.997490 
	C254.295074,92.071762 254.543900,92.221886 254.864380,92.633041 
	C249.110733,94.022049 243.240891,95.223816 236.986145,96.494629 
	C236.812195,95.427635 237.023193,94.291573 237.911896,93.204010 
	C239.392868,93.499336 240.196121,93.746162 240.999390,93.992981 
	C245.050751,93.328514 249.102112,92.664040 253.577591,91.997490 
z"/>
<path fill="#035778" opacity="1.000000" stroke="none" 
	d="
M240.998474,93.605850 
	C240.196121,93.746162 239.392868,93.499336 238.295105,93.126717 
	C238.453094,92.073509 238.905579,91.146095 239.358063,90.218674 
	C239.904572,91.218689 240.451065,92.218697 240.998474,93.605850 
z"/>
<path fill="#015777" opacity="1.000000" stroke="none" 
	d="
M260.227478,94.274658 
	C260.570190,92.864319 261.144440,91.725685 261.859924,90.291656 
	C262.442841,89.996849 262.884491,89.997437 263.657104,89.998199 
	C263.990021,91.388718 263.991913,92.779060 263.989655,94.586624 
	C262.810028,94.851357 261.634521,94.698860 260.227478,94.274658 
z"/>
<path fill="#0C626F" opacity="1.000000" stroke="none" 
	d="
M157.420853,244.270264 
	C157.810455,242.992950 158.472244,241.511353 159.534210,240.015320 
	C159.187271,241.355911 158.440170,242.710938 157.420853,244.270264 
z"/>
<path fill="#0C626F" opacity="1.000000" stroke="none" 
	d="
M154.583084,249.094696 
	C154.696442,248.226105 155.071777,247.180328 155.826752,246.106125 
	C155.752625,247.024292 155.298843,247.970901 154.583084,249.094696 
z"/>
<path fill="#0C626F" opacity="1.000000" stroke="none" 
	d="
M153.393066,251.168976 
	C153.312714,250.700729 153.502090,250.055939 154.030243,249.311142 
	C154.133575,249.804916 153.898178,250.398697 153.393066,251.168976 
z"/>
<path fill="#27687A" opacity="1.000000" stroke="none" 
	d="
M156.736542,234.761749 
	C155.561401,235.497589 154.072113,236.243439 152.225815,236.947906 
	C153.386673,236.194931 154.904556,235.483337 156.736542,234.761749 
z"/>
<path fill="#27687A" opacity="1.000000" stroke="none" 
	d="
M158.360138,231.291122 
	C158.635529,231.611099 158.795868,232.274078 158.710602,232.991364 
	C158.391693,232.575165 158.318390,232.104630 158.360138,231.291122 
z"/>
</svg>